<svg id="组_58474" data-name="组 58474" xmlns="http://www.w3.org/2000/svg" width="49" height="49" viewBox="0 0 49 49">
  <g id="椭圆_3626" data-name="椭圆 3626" fill="none" stroke="#29c2c3" stroke-width="1">
    <circle cx="24.5" cy="24.5" r="24.5" stroke="none"/>
    <circle cx="24.5" cy="24.5" r="24" fill="none"/>
  </g>
  <path id="路径_97089" data-name="路径 97089" d="M85.632,97.081a15.7,15.7,0,1,1,15.7-15.7A15.7,15.7,0,0,1,85.632,97.081Zm0-24.509a1.915,1.915,0,1,0,1.915,1.915A1.915,1.915,0,0,0,85.632,72.571Zm1.915,7.659A1.532,1.532,0,0,0,86.015,78.7h-.766a1.532,1.532,0,0,0-1.532,1.532v9.191a1.532,1.532,0,0,0,1.532,1.532h.766a1.532,1.532,0,0,0,1.532-1.532Z" transform="translate(-61.132 -56.879)" fill="#29c2c3"/>
</svg>
