<svg xmlns="http://www.w3.org/2000/svg" width="29.046" height="29.046" viewBox="0 0 29.046 29.046">
  <path id="路径_97096" data-name="路径 97096" d="M87.575,11.612a2.84,2.84,0,0,1,1.13.232,2.847,2.847,0,0,1,1.548,1.548,2.84,2.84,0,0,1,.232,1.13,2.807,2.807,0,0,1-.232,1.146,2.977,2.977,0,0,1-.619.913,2.929,2.929,0,0,1-.929.619,2.84,2.84,0,0,1-1.13.232h-8.7v8.7a2.807,2.807,0,0,1-.232,1.146,2.977,2.977,0,0,1-.619.913,2.929,2.929,0,0,1-.929.619,2.84,2.84,0,0,1-1.13.232,2.807,2.807,0,0,1-1.146-.232,2.928,2.928,0,0,1-1.533-1.533,2.807,2.807,0,0,1-.232-1.146v-8.7h-8.7a2.807,2.807,0,0,1-1.146-.232,2.928,2.928,0,0,1-1.533-1.533,2.807,2.807,0,0,1-.232-1.146,2.84,2.84,0,0,1,.232-1.13,2.929,2.929,0,0,1,.619-.929,2.977,2.977,0,0,1,.913-.619,2.807,2.807,0,0,1,1.146-.232h8.7v-8.7a2.84,2.84,0,0,1,.232-1.13A2.929,2.929,0,0,1,73.9.852a2.977,2.977,0,0,1,.913-.619,2.924,2.924,0,0,1,3.2.619,2.805,2.805,0,0,1,.852,2.059v8.7h8.7Z" transform="translate(-61.44)" fill="#fff"/>
</svg>
