<svg xmlns="http://www.w3.org/2000/svg" width="36.592" height="36.591" viewBox="0 0 36.592 36.591">
  <path id="路径_97247" data-name="路径 97247" d="M8.233,20.6A2.743,2.743,0,0,0,7.2,22.1a3.108,3.108,0,0,0,.812,2.85,5.407,5.407,0,0,0,3.272,1.386,8.682,8.682,0,0,0,5.27-1.817,11.643,11.643,0,0,0,2.515-2.491c-2.122-1.1-4.77-2.307-7.6-2.188A7.52,7.52,0,0,0,8.233,20.6Zm26.9,4.843a18.376,18.376,0,1,0-2.024,3.566c-3.144-1.563-8.327-4.136-11.519-5.692a14.207,14.207,0,0,1-6.319,4.234,9.1,9.1,0,0,1-4.545.348A6.022,6.022,0,0,1,7.5,26.2a6.114,6.114,0,0,1-.972-1.351c.025.068.043.109.043.109a3.268,3.268,0,0,1-.275-.7,3.073,3.073,0,0,1-.119-.648,3.342,3.342,0,0,1-.007-.466,3.361,3.361,0,0,1,.06-.86,4.4,4.4,0,0,1,1.257-2.347,7.336,7.336,0,0,1,5.318-1.8,28.058,28.058,0,0,1,7.569,1.731,26.916,26.916,0,0,0,1.5-4.327H10.91V14.353h5.629v-2.37H9.725V10.8h6.814V8.428c0-.325.064-.593.593-.593H19.8V10.8H27.2v1.185H19.8v2.37h5.925a23.248,23.248,0,0,1-2.456,6.586C27.4,22.415,33.206,24.686,35.136,25.445Z" fill="#419df4"/>
</svg>
