<svg xmlns="http://www.w3.org/2000/svg" width="56.885" height="56.882" viewBox="0 0 56.885 56.882">
  <path id="路径_97221" data-name="路径 97221" d="M56.885,38.941V10.936A10.941,10.941,0,0,0,45.946,0H10.936A10.941,10.941,0,0,0,0,10.936V45.946A10.938,10.938,0,0,0,10.936,56.882H45.946a10.95,10.95,0,0,0,10.768-9c-2.9-1.257-15.472-6.684-22.022-9.812-4.983,6.038-10.2,9.661-18.071,9.661S3.5,42.88,4.132,36.948c.415-3.891,3.086-10.253,14.681-9.164,6.115.575,8.911,1.715,13.9,3.362a39.492,39.492,0,0,0,3.174-7.736H13.78V21.22H24.718V17.284H11.376V14.875H24.715V9.2a1.059,1.059,0,0,1,1.1-.887h5.469v6.561h14.22v2.412H31.285v3.931h11.6a44.772,44.772,0,0,1-4.713,11.814c3.37,1.223,18.708,5.91,18.708,5.91ZM15.751,43.973c-8.313,0-9.627-5.247-9.186-7.44S9.408,31.5,14.03,31.5c5.31,0,10.068,1.359,15.779,4.141-4.01,5.222-8.939,8.333-14.058,8.333Z" fill="#3379F6"/>
</svg>
