<svg xmlns="http://www.w3.org/2000/svg" width="108" height="108" viewBox="0 0 108 108">
  <g id="组_58714" data-name="组 58714" transform="translate(-571 -822)">
    <g id="椭圆_3642" data-name="椭圆 3642" transform="translate(571 822)" fill="none" stroke="#5a9bed" stroke-width="3">
      <circle cx="54" cy="54" r="54" stroke="none"/>
      <circle cx="54" cy="54" r="52.5" fill="none"/>
    </g>
    <g id="组_58672" data-name="组 58672" transform="translate(540.03 714.642)">
      <path id="路径_97208" data-name="路径 97208" d="M120.348,167.218a1.51,1.51,0,0,1-1.036-.408L84.97,134.8,50.629,166.811a1.521,1.521,0,1,1-2.072-2.226l35.376-32.977a1.521,1.521,0,0,1,2.072,0l35.38,32.979a1.518,1.518,0,0,1-1.036,2.632Z" transform="translate(0 0)" fill="#419df4"/>
      <path id="路径_97209" data-name="路径 97209" d="M217.958,599.782" transform="translate(-156.431 -431.467)" fill="#419df4"/>
      <path id="路径_97210" data-name="路径 97210" d="M202.138,354.673,174.36,328.779a1.521,1.521,0,0,0-2.072,0L144.51,354.673a1.525,1.525,0,0,0-.485,1.113v11.426a5.865,5.865,0,0,0,5.858,5.858h46.883a5.863,5.863,0,0,0,5.856-5.858V355.786A1.533,1.533,0,0,0,202.138,354.673Zm-20.1-7.847-6.687,7.91a1.4,1.4,0,0,1,.018.158h4a1.521,1.521,0,0,1,0,3.042H175v1.991h4.378a1.521,1.521,0,0,1,0,3.042H175V366.7a1.521,1.521,0,1,1-3.042,0v-3.727h-4.38a1.521,1.521,0,1,1,0-3.042h4.38v-1.991h-4.38a1.521,1.521,0,1,1,0-3.042h4.179a1.54,1.54,0,0,1,.018-.166l-6.708-7.9a1.521,1.521,0,0,1,2.318-1.969l5.807,6.839a.932.932,0,0,1,.718.03l5.807-6.868a1.522,1.522,0,0,1,2.324,1.965Z" transform="translate(-88.354 -181.554)" fill="#419df4"/>
    </g>
  </g>
</svg>
