<svg xmlns="http://www.w3.org/2000/svg" width="108" height="108" viewBox="0 0 108 108">
  <g id="组_58743" data-name="组 58743" transform="translate(-321 -1029)">
    <g id="组_58741" data-name="组 58741">
      <g id="椭圆_3644" data-name="椭圆 3644" transform="translate(321 1029)" fill="none" stroke="#5a9bed" stroke-width="3">
        <circle cx="54" cy="54" r="54" stroke="none"/>
        <circle cx="54" cy="54" r="52.5" fill="none"/>
      </g>
    </g>
    <path id="路径_97249" data-name="路径 97249" d="M144.487,8.508h-8.981a2.12,2.12,0,0,1-1.43-.432,2.288,2.288,0,0,1-.7-1.1,5.2,5.2,0,0,1-.2-1.5,8.738,8.738,0,0,1,.133-1.563,11.962,11.962,0,0,1,.266-1.6,4.917,4.917,0,0,1,.565-1.464,1.775,1.775,0,0,1,.965-.8,1.772,1.772,0,0,1,1.463.333q1,.6,2.262,1.3t2.461,1.4q1.2.7,2.229,1.264t1.563.9a3.366,3.366,0,0,1,1,1.031,1.66,1.66,0,0,1,.266,1.064,1.2,1.2,0,0,1-.532.832,2.268,2.268,0,0,1-1.33.333Zm5.189-.067h8.914a2.12,2.12,0,0,0,1.43-.432,2.289,2.289,0,0,0,.7-1.1,5.2,5.2,0,0,0,.2-1.5q0-.832-.067-1.563-.133-.732-.3-1.563a4.365,4.365,0,0,0-.532-1.43,1.775,1.775,0,0,0-.965-.8,1.871,1.871,0,0,0-1.464.266q-1,.6-2.262,1.3t-2.495,1.4q-1.231.7-2.262,1.264a16.2,16.2,0,0,0-1.5.9,3.17,3.17,0,0,0-1.064,1.031,1.66,1.66,0,0,0-.266,1.064,1.2,1.2,0,0,0,.532.832,2.4,2.4,0,0,0,1.4.333Zm-6.12,4.391H124.264q-2.129,0-2.761.7a3.263,3.263,0,0,0-.632,2.229v5.854a3.665,3.665,0,0,0,.7,2.461,3.629,3.629,0,0,0,2.761.8h19.225V12.832Zm7.251,0h19.026a3.887,3.887,0,0,1,2.894.832,3.362,3.362,0,0,1,.765,2.362v5.721a3.415,3.415,0,0,1-.7,2.362,3.734,3.734,0,0,1-2.761.765H150.807ZM143.556,28.4H123.133V53.544a6.965,6.965,0,0,0,1.929,5.255q1.929,1.863,5.987,1.863h12.506Zm7.251,0h20.356V53.345a7.692,7.692,0,0,1-1.929,5.355q-1.863,1.962-5.921,1.962H150.807Z" transform="translate(227.819 1052.669)" fill="#419df4"/>
  </g>
</svg>
