<svg xmlns="http://www.w3.org/2000/svg" width="75.768" height="46.959" viewBox="0 0 75.768 46.959">
  <g id="组_58695" data-name="组 58695" transform="translate(-60.954 -232.728)">
    <path id="路径_97217" data-name="路径 97217" d="M75.137,233.234a6.637,6.637,0,0,0-5.1,4.178c-.478,1.3-9.041,38.19-9.081,38.86a3.418,3.418,0,0,0,2.867,3.7c.677.158,22.424.158,23.141,0A6.536,6.536,0,0,0,91.707,276c.279-.749,9.121-38.348,9.121-38.978a3.586,3.586,0,0,0-2.668-3.744c-.4-.079-22.105-.158-23.022-.04Z" transform="translate(0 -0.409)" fill="#e60012"/>
    <path id="路径_97218" data-name="路径 97218" d="M316.691,233.234a6.636,6.636,0,0,0-5.1,4.178c-.438,1.3-9.041,38.19-9.041,38.86a3.418,3.418,0,0,0,2.868,3.7c.677.158,22.424.158,23.141,0A6.535,6.535,0,0,0,333.3,276c.279-.749,9.121-38.348,9.121-38.978a3.585,3.585,0,0,0-2.668-3.744c-.438-.079-22.145-.158-23.061-.04Z" transform="translate(-221.281 -0.409)" fill="#00508e"/>
    <path id="路径_97219" data-name="路径 97219" d="M568.233,232.825a6.636,6.636,0,0,0-5.1,4.178c-.438,1.3-9.041,38.19-9.041,38.86a3.419,3.419,0,0,0,2.868,3.7c.677.158,16.848.158,17.565,0a6.535,6.535,0,0,0,4.74-3.981c.279-.749,9.121-38.348,9.121-38.978a3.586,3.586,0,0,0-2.669-3.744c-.4-.118-18.56-.2-19.476-.079h1.992Z" transform="translate(-451.673)" fill="#00908c"/>
    <path id="路径_97220" data-name="路径 97220" d="M167.27,374.927a2.585,2.585,0,0,1-.119.512c-.916,3.074-1.832,7.212-1.713,7.725.319,1.537,2.589,1.419,3.385-.2.239-.433,1.952-7.646,1.952-8.158,0-.04,2.708,0,2.708.039a.837.837,0,0,1-.04.237c-.04.118-.478,1.773-.956,3.744-1.076,4.178-1.2,4.611-1.753,5.439-1.832,2.68-7.966,2.6-8.444-.118a63.215,63.215,0,0,1,1.793-9.262,17.227,17.227,0,0,1,3.186.039Zm40.706,0c1.832.394,2.39,1.852,1.553,4.02s-2.628,3.113-5.775,3.113c-.956,0-.876-.158-1.474,2.8-.119.552-.239,1.064-.239,1.143a6.837,6.837,0,0,1-2.828,0c2.39-10.129,2.589-11,2.589-11.075l.04-.118h2.867a26.464,26.464,0,0,1,3.266.118Zm-24.575,3.9a.791.791,0,0,1,.677.67c0,.985-2.031,1.655-2.788.906-.717-.749.8-1.892,2.111-1.576Zm-7.05.749c0,.079-.04.237-.04.355l-.04.158.478-.237c1.275-.63,2.509-.512,2.908.276.239.473.2.749-.438,3.665-.12.512-.279,1.222-.319,1.576-.16.789-.04.749-1.474.749-1.235,0-1.235,0-1.195-.118,0-.079.159-.709.319-1.458.637-2.8.677-3.192.12-3.192a1.151,1.151,0,0,0-.8.315c-.08.276-.8,3.7-.837,4.02l-.079.355-1.235.079c-1.513.039-1.394.157-1.075-1.183a38.72,38.72,0,0,0,.836-4.059c.2-1.182.08-1.064,1.195-1.222.518-.079,1.035-.158,1.2-.2C176.271,379.342,176.351,379.381,176.351,379.578Zm18.919-.039c0,.078-.04.236-.04.354l-.04.2.478-.237c2.469-1.261,3.425-.237,2.708,3-.159.709-.359,1.734-.478,2.207a4.182,4.182,0,0,1-.239.985,7.389,7.389,0,0,1-2.47,0c0-.079.16-.709.319-1.419.677-2.877.677-3.232.08-3.232-.478,0-.717.158-.8.512-.12.433-.717,3.271-.8,3.784l-.08.434-1.235.039c-1.513.039-1.394.2-1.036-1.261.4-1.577.677-3.035.876-4.1.159-1.025.04-.907,1.035-1.064.438-.079,1-.158,1.2-.2C195.15,379.342,195.27,379.381,195.27,379.539Zm24.177-.04c.159,2.4.2,3.113.2,3.153a13.621,13.621,0,0,0,.757-1.379c.8-1.576.637-1.419,1.514-1.537.239-.039.717-.119,1.075-.2.876-.158.876-.237-.12,1.5-1.354,2.325-3.226,5.6-3.9,6.779-2.031,3.665-2.031,3.665-3.744,3.7l-1.036.04.079-.276c.04-.157.159-.473.2-.709l.119-.434h.319c.359,0,.438-.079.757-.631a6.333,6.333,0,0,0,.4-.709c.119-.2.518-.828.837-1.458l.637-1.1-.159-1.458c-.2-1.695-.438-3.7-.558-4.3-.08-.552-.08-.552.637-.631.319-.039.836-.158,1.115-.2.757-.236.836-.236.876-.158Zm-30.031.04c3.067.552,1.992,5.833-1.354,6.582-2.27.512-3.823-.355-3.823-2.089a4.3,4.3,0,0,1,5.178-4.493Zm22.942.157a2.393,2.393,0,0,1,.518.355c.2.2.2.2.2.079.04-.158,0-.158,1.593-.394,1.274-.2,1.235-.2,1.155.158-.518,2.207-.956,4.138-1.155,5.084-.279,1.419-.08,1.261-1.633,1.222h-1.315v-.158c0-.158-.079-.236-.159-.118-.438.71-2.589.434-3.186-.433-1.473-2.207,1.673-6.858,3.983-5.794Zm-28.6,1.143a1.716,1.716,0,0,1-.04.355c-.318,1.261-.876,3.823-1,4.3l-.12.591-1.314.039c-1.553.039-1.474.118-1.155-.828a20.148,20.148,0,0,0,.717-3.193c.159-1.025,0-.867,1.155-1.025.518-.079,1.075-.157,1.195-.2.319-.079.518-.079.558-.04Zm6.97,8.158a1.622,1.622,0,0,1-.2.394,1.762,1.762,0,0,1-.2.355c2.35.039,2.429.039,2.39.157l-.438,1.419h-3.425l-.2.157c-.438.394-2.748.907-2.748.591l.438-1.419h.319c.558,0,.677-.118,1.155-.946l.4-.749a11.694,11.694,0,0,1,2.509.04Zm5.218,0a2.462,2.462,0,0,1-.12.473,1.765,1.765,0,0,0-.119.433,1.838,1.838,0,0,0,.438-.276c.876-.591,1.633-.709,3.863-.709a13.713,13.713,0,0,1,1.673.039c.04.079-1.274,4.336-1.474,4.729a2,2,0,0,1-1,.986l-.4.158-2.27.04-2.27.039-.4,1.34c-.8,2.562-.8,2.365.359,2.247.916-.079.876-.157.6.788l-.239.788h-1.155c-2.509.039-2.828-.118-2.589-1.143.12-.512,2.987-9.892,3.027-9.971a12.1,12.1,0,0,1,2.071.04Zm10.475,0c0,.04-.04.158-.079.315-.12.394-.12.394.4.119.677-.355,2.27-.473,5.536-.473h1.036v.473c0,.552.04.591.518.67l.359.039-.2.71-.2.709h-.717c-1.832.04-2.111-.157-2.151-1.221v-.513l-.119.355-.12.394h-.4c-.2,0-.4,0-.4.039,0,0-1.952,6.424-2.23,7.33-.04.079,0,.118.239.118.359,0,.359,0,.239.315-.119.355-.119.355.279.355a1.1,1.1,0,0,0,.637-.158c.279-.158.279-.118,1.553-1.892l.518-.749h-1.075c-1.314,0-1.195.079-.956-.709l.2-.631h2.629c.239-.828.318-1.064.318-1.1a7.247,7.247,0,0,0-1.274-.039h-1.274l.4-1.419h3.585c1.952,0,3.585,0,3.585.04a5.366,5.366,0,0,1-.2.71l-.2.67-1.2.039-1.195.039c-.2.591-.279.867-.319.946l-.04.157h1.155c1.354,0,1.274-.079,1,.709l-.2.631h-2.629l-.4.473h1.035l.159.946c.16,1.064.16,1.064.677,1.064.4,0,.4-.079.12.867l-.239.788h-.757c-1.314,0-1.553-.2-1.793-1.537l-.119-.867-.478.631c-1.315,1.773-1.394,1.813-3.067,1.813-1.076,0-1.076,0-.916-.315.04-.157.04-.157-.279-.157s-.319,0-.4.236l-.04.236h-2.23l.04-.118c.12-.394.319-.354-2.111-.354-2.111,0-2.23,0-2.191-.118l.2-.709c.239-.71.2-.71.438-.71.2,0,.2,0,.279-.276,1.872-6.187,2.47-8.158,2.549-8.434l.16-.512h1.115A4.908,4.908,0,0,1,206.422,389Zm-14.139,3.39-.438,1.379h-2.39a11.556,11.556,0,0,1-.359,1.1c-.04.118.04.118,1.2.118.677,0,1.235.04,1.235.04a1.548,1.548,0,0,1-.08.236,6.59,6.59,0,0,0-.2.709l-.16.512h-2.469l-.279.946c-.4,1.34-.358,1.379,1.155,1.182.637-.079.6-.158.319.788l-.239.788H187.9c-2.629,0-2.668-.079-1.952-2.325.2-.709.4-1.3.4-1.3a5.34,5.34,0,0,0-.677-.04,2.168,2.168,0,0,1-.677-.039c.279-.985.4-1.3.4-1.379.04-.078.12-.118.717-.118h.677l.319-1.222h-.637c-.478,0-.637,0-.637-.079s.359-1.221.4-1.34c.08-.078,6.094-.039,6.054.04Zm7.727,2.838c0,.079-.08.315-.119.512-.239,1.1-.558,1.34-1.832,1.419-.438.04-.836.079-.836.079a3.145,3.145,0,0,0,0,1.222l.12.158.8-.04c.438-.039.8-.039.8-.039,0,.079-.438,1.458-.478,1.5a13.991,13.991,0,0,1-2.828-.079c-.478-.158-.478-.118-.438-2.6l.04-2.168h2.031v.828h.4c.438,0,.478-.04.677-.591l.12-.315h.8C199.969,395.146,200.049,395.146,200.009,395.225Zm3.744-16.868-.438,1.892h.6c3.067.079,4.342-3.429,1.354-3.665-.478-.04-.916-.079-.956-.079-.12,0-.12.119-.558,1.853Zm-15.852,2.68c-.757.315-1.473,3.153-.876,3.586.438.355,1.075-.236,1.394-1.222C188.937,381.588,188.777,380.721,187.9,381.036Zm23.739.2c-.8.394-1.394,3.193-.8,3.508.8.433,1.832-1.064,1.832-2.68C212.675,381.312,212.237,380.957,211.64,381.233Zm-16.091,9.38-.2.709a6.616,6.616,0,0,1-.239.709c0,.04.2-.039.478-.2a4,4,0,0,1,2.19-.512l1-.04a3.919,3.919,0,0,0,.2-.709,33.266,33.266,0,0,0-3.425.04Zm-.677,2.286-.16.631,3.425-.04.2-.631C195.628,392.86,194.872,392.86,194.872,392.9ZM205.7,391.48a3.835,3.835,0,0,0-.239.907l.478-.158a7.722,7.722,0,0,1,.916-.236c.239-.039.438-.079.478-.079,0,0,.4-1.222.4-1.261,0,0-.4-.039-.876-.039h-.876l-.279.867Zm-.637,2.01c0,.039-.159.434-.279.907-.159.473-.279.907-.279.907,0,.039.2-.04.478-.158a4.785,4.785,0,0,1,.916-.276c.518-.079.558-.118.6-.315.04-.079.12-.394.2-.63l.16-.473h-.876a3.987,3.987,0,0,0-.916.039Zm-1.394,4.533,1.753.04c.359-1.182.478-1.577.478-1.616l-1.753-.079-.478,1.655Z" transform="translate(-92.809 -130.121)" fill="#fff"/>
  </g>
</svg>
