<svg xmlns="http://www.w3.org/2000/svg" width="88.335" height="81.709" viewBox="0 0 88.335 81.709">
  <path id="路径_97104" data-name="路径 97104" d="M144.813,128a7.729,7.729,0,0,1,7.385,5.447l2.411,7.8h6.912A12.146,12.146,0,0,1,173.668,153.4v44.167a12.146,12.146,0,0,1-12.146,12.146H97.479a12.146,12.146,0,0,1-12.146-12.146V153.4A12.146,12.146,0,0,1,97.479,141.25h6.912l2.412-7.8A7.729,7.729,0,0,1,114.188,128ZM129.5,156.709a16.563,16.563,0,1,0,16.563,16.563A16.563,16.563,0,0,0,129.5,156.709Zm0,26.5a9.938,9.938,0,1,0-9.938-9.938A9.938,9.938,0,0,0,129.5,183.209Z" transform="translate(-85.333 -128)" fill="#fff"/>
</svg>
