<svg width="30" height="30" viewBox="0 0 30 30" fill="none" xmlns="http://www.w3.org/2000/svg">
<path d="M26.5957 13.685L24.2754 11.4086V8.53752C24.2725 7.51506 24.5771 5.66936 23.5605 5.66643H17.8418L16.4121 3.51604C15.6914 2.79534 14.3965 2.61662 13.6758 3.33733L12.123 5.66936H7.83105C6.81152 5.67229 5.63672 6.47502 5.63379 7.49748V11.2563L3.36328 13.6879C2.64551 14.4115 2.64551 15.5834 3.36328 16.3071L5.63379 18.7709V22.5297C5.63672 23.5522 6.09668 24.3256 7.11621 24.3285H11.4053L13.6729 26.6547C14.3936 27.3754 15.5625 27.3754 16.2832 26.6547L18.5537 24.3285H22.1279C23.1475 24.3256 24.2695 23.1977 24.2725 22.1752V18.5864L26.5928 16.3071C27.3135 15.5805 27.3135 14.4115 26.5957 13.685ZM14.9971 20.6489L8.44336 11.2533H13.125L14.9795 16.849L16.8691 11.2533H21.5508L14.9971 20.6489Z" fill="#F4E3BA"/>
</svg>
