<svg id="组_58392" data-name="组 58392" xmlns="http://www.w3.org/2000/svg" width="49" height="49" viewBox="0 0 49 49">
  <g id="组_58280" data-name="组 58280" transform="translate(11.46 14)">
    <path id="路径_97061" data-name="路径 97061" d="M1.642,0H24.3A1.759,1.759,0,0,1,25.36.44a1.737,1.737,0,0,1,.582,1.3q0,5.726,0,11.451a6.753,6.753,0,0,0-2.151-1.746,6.721,6.721,0,0,0-9.1,8.94H1.738A1.736,1.736,0,0,1,.44,19.8,1.763,1.763,0,0,1,0,18.741V1.646A1.748,1.748,0,0,1,1.642,0M7.109,3.005a3.109,3.109,0,1,0,2.044.464,3.1,3.1,0,0,0-2.044-.464m7.581.715a.579.579,0,0,0,.192,1.13h7.5a.579.579,0,1,0,0-1.158H15.028a1.068,1.068,0,0,0-.338.028m0,2.519a.579.579,0,0,0,.19,1.13q3.766,0,7.532,0a.579.579,0,0,0,.18-1.123,1,1,0,0,0-.356-.034H15.027a1.063,1.063,0,0,0-.336.028m-9.822,4.6a4.55,4.55,0,0,0-1.652,4.636H12.09a4.554,4.554,0,0,0-7.221-4.637Z" fill="#4372c3"/>
    <path id="路径_97062" data-name="路径 97062" d="M660.324,510.01a5.833,5.833,0,0,1,5.571,2.612,5.843,5.843,0,0,1,.492,5.444,5.857,5.857,0,0,1-2.413,2.765,5.773,5.773,0,0,1-2.446.788,5.837,5.837,0,0,1-1.2-11.61m3.288,3.57a.741.741,0,0,0-.284.211l-2.852,2.851-1.774-1.774a.937.937,0,0,0-.238-.2.552.552,0,0,0-.559.037.636.636,0,0,0-.266.376.554.554,0,0,0,.157.516q1.143,1.143,2.286,2.286a.553.553,0,0,0,.571.126,1.205,1.205,0,0,0,.35-.259q1.6-1.6,3.2-3.2a.583.583,0,0,0,.17-.281A.6.6,0,0,0,663.612,513.581Z" transform="translate(-640.273 -498.378)" fill="#4372c3"/>
  </g>
  <g id="椭圆_3626" data-name="椭圆 3626" fill="none" stroke="#4372c3" stroke-width="1">
    <circle cx="24.5" cy="24.5" r="24.5" stroke="none"/>
    <circle cx="24.5" cy="24.5" r="24" fill="none"/>
  </g>
</svg>
