<svg width="50" height="50" viewBox="0 0 50 50" fill="none" xmlns="http://www.w3.org/2000/svg">
<path d="M25 46.875C12.9375 46.875 3.125 37.0625 3.125 25C3.125 12.9375 12.9375 3.125 25 3.125C37.0625 3.125 46.875 12.9375 46.875 25C46.875 37.0625 37.0625 46.875 25 46.875ZM25 6.26403C14.6687 6.26403 6.26403 14.6687 6.26403 25C6.26403 35.3297 14.6687 43.736 25 43.736C35.3297 43.736 43.736 35.3298 43.736 25C43.736 14.6687 35.3297 6.26403 25 6.26403Z" fill="#A6B1C2"/>
<path d="M27.2 25.0671L33.9563 18.3843C34.5703 17.778 34.575 16.789 33.9688 16.1749C33.3625 15.5609 32.3719 15.5562 31.7594 16.1624L24.9938 22.8531L18.3313 16.1702C17.7203 15.5593 16.7329 15.5562 16.1219 16.1671C15.5109 16.7765 15.5094 17.7655 16.1188 18.3765L22.7719 25.0499L16.064 31.6859C15.4499 32.2937 15.4452 33.2812 16.0515 33.8953C16.3577 34.2046 16.7593 34.3593 17.1624 34.3593C17.5593 34.3593 17.9561 34.2078 18.2609 33.9078L24.9781 27.264L31.7499 34.0578C32.0546 34.364 32.4546 34.5171 32.8562 34.5171C33.2562 34.5171 33.6546 34.364 33.9593 34.0609C34.5703 33.4515 34.5718 32.464 33.9624 31.8515L27.2 25.0671Z" fill="#A6B1C2"/>
</svg>
