<svg width="30" height="30" viewBox="0 0 30 30" fill="none" xmlns="http://www.w3.org/2000/svg">
<path d="M21.8625 24.1425C16.855 24.1438 13.785 24.1425 12.6525 24.1375C12.5663 24.132 12.4801 24.1476 12.4012 24.1829C12.3224 24.2182 12.2533 24.2721 12.2 24.34C11.4975 25.1475 10.4962 26.29 9.195 27.7675C9.05611 27.9254 8.87964 28.0456 8.68194 28.1172C8.48424 28.1887 8.27168 28.2092 8.06394 28.1768C7.8562 28.1444 7.65998 28.0602 7.49346 27.9318C7.32693 27.8034 7.19548 27.6352 7.11125 27.4425C6.66019 26.4132 6.21269 25.3824 5.76875 24.35C5.69625 24.18 5.60875 24.1375 5.43375 24.1375C5.0125 24.1425 4.45125 24.1438 3.75 24.1438C3.41848 24.1438 3.10054 24.0121 2.86612 23.7776C2.6317 23.5432 2.5 23.2253 2.5 22.8938V9.65626C2.5 9.32473 2.6317 9.00679 2.86612 8.77237C3.10054 8.53795 3.41848 8.40625 3.75 8.40625H21.8625C22.194 8.40625 22.512 8.53795 22.7464 8.77237C22.9808 9.00679 23.1125 9.32473 23.1125 9.65626V22.8925C23.1125 23.224 22.9808 23.542 22.7464 23.7764C22.512 24.0108 22.194 24.1425 21.8625 24.1425ZM20.8363 21.8938V10.6588L4.9875 10.6663V21.9L6.22125 21.8925C6.70375 21.8925 6.98 21.9125 7.0475 21.9513C7.11375 21.995 7.51 22.9388 8.235 24.7838C8.25083 24.8235 8.27658 24.8585 8.3098 24.8854C8.34301 24.9123 8.38257 24.9303 8.42471 24.9376C8.46684 24.9448 8.51014 24.9412 8.55046 24.9269C8.59077 24.9127 8.62677 24.8884 8.655 24.8563C9.76375 23.5975 10.58 22.675 11.1025 22.0888C11.16 22.0238 11.285 21.96 11.4762 21.9L20.835 21.8938H20.8363ZM10 15H15.7412C15.9054 15 16.068 15.0323 16.2197 15.0951C16.3713 15.1579 16.5092 15.25 16.6253 15.3661C16.7414 15.4821 16.8334 15.6199 16.8963 15.7716C16.9591 15.9233 16.9914 16.0858 16.9914 16.25C16.9914 16.4142 16.9591 16.5767 16.8963 16.7284C16.8334 16.8801 16.7414 17.0179 16.6253 17.134C16.5092 17.25 16.3713 17.3421 16.2197 17.4049C16.068 17.4677 15.9054 17.5 15.7412 17.5H10C9.66851 17.5 9.35062 17.3682 9.11624 17.1338C8.88186 16.8994 8.75019 16.5815 8.75019 16.25C8.75019 15.9185 8.88186 15.6006 9.11624 15.3662C9.35062 15.1318 9.66851 15.0001 10 15ZM26.25 19.6813H24.8425C24.7604 19.6813 24.6791 19.6651 24.6033 19.6337C24.5275 19.6023 24.4586 19.5562 24.4006 19.4982C24.3425 19.4402 24.2965 19.3713 24.2651 19.2954C24.2337 19.2196 24.2175 19.1383 24.2175 19.0563V18.0725C24.2175 17.9904 24.2337 17.9092 24.2651 17.8333C24.2965 17.7575 24.3425 17.6886 24.4006 17.6306C24.4586 17.5725 24.5275 17.5265 24.6033 17.4951C24.6791 17.4637 24.7604 17.4475 24.8425 17.4475H25.2225V6.04251H10.41V6.52501C10.41 6.69077 10.3442 6.84974 10.2269 6.96695C10.1097 7.08416 9.95076 7.15 9.785 7.15H8.785C8.61924 7.15 8.46027 7.08416 8.34306 6.96695C8.22585 6.84974 8.16 6.69077 8.16 6.52501V5.005C8.16 4.67348 8.2917 4.35554 8.52612 4.12112C8.76054 3.8867 9.07848 3.755 9.41 3.755H26.25C26.5815 3.755 26.8995 3.8867 27.1339 4.12112C27.3683 4.35554 27.5 4.67348 27.5 5.005V18.4313C27.5 18.7628 27.3683 19.0807 27.1339 19.3151C26.8995 19.5496 26.5815 19.6813 26.25 19.6813Z" fill="#A6B1C2"/>
</svg>
