<svg width="29" height="29" viewBox="0 0 29 29" fill="none" xmlns="http://www.w3.org/2000/svg">
<g clip-path="url(#clip0_9_366)">
<path d="M0.00976562 5.8C0.00976563 7.33826 0.620835 8.81351 1.70855 9.90122C2.79626 10.9889 4.27151 11.6 5.80977 11.6C7.34802 11.6 8.82327 10.9889 9.91098 9.90122C10.9987 8.81351 11.6098 7.33826 11.6098 5.8C11.6098 4.26174 10.9987 2.78649 9.91098 1.69878C8.82327 0.61107 7.34802 0 5.80977 0C4.27151 0 2.79626 0.61107 1.70855 1.69878C0.620835 2.78649 0.00976563 4.26174 0.00976562 5.8Z" fill="#D5CFFB"/>
<path d="M17.4097 5.8C17.4097 6.56167 17.5598 7.31588 17.8512 8.01956C18.1427 8.72325 18.5699 9.36264 19.1085 9.90122C19.6471 10.4398 20.2865 10.867 20.9902 11.1585C21.6939 11.45 22.4481 11.6 23.2097 11.6C23.9714 11.6 24.7256 11.45 25.4293 11.1585C26.133 10.867 26.7724 10.4398 27.3109 9.90122C27.8495 9.36264 28.2768 8.72325 28.5682 8.01956C28.8597 7.31588 29.0097 6.56167 29.0097 5.8C29.0097 4.26174 28.3987 2.78649 27.3109 1.69878C26.2232 0.61107 24.748 0 23.2097 0C21.6715 0 20.1962 0.61107 19.1085 1.69878C18.0208 2.78649 17.4097 4.26174 17.4097 5.8Z" fill="#D5CFFB"/>
<path d="M23.2098 13.0501C21.7804 13.0406 20.3979 13.5593 19.3274 14.5066C18.257 15.454 17.5741 16.7632 17.4098 18.1831L14.5098 21.0831L11.6098 18.1831C11.5213 16.6449 10.8254 15.2047 9.67517 14.1796C8.52492 13.1544 7.01453 12.6282 5.47627 12.7166C3.93802 12.8051 2.4979 13.501 1.47273 14.6512C0.447565 15.8015 -0.0786776 17.3119 0.00977211 18.8501V29.0001H11.6098V22.3591L13.4803 24.2296C13.7519 24.4997 14.1195 24.6513 14.5025 24.6513C14.8856 24.6513 15.2531 24.4997 15.5248 24.2296L17.4098 22.3591V29.0001H29.0098V18.8501C29.0098 17.3119 28.3987 15.8366 27.311 14.7489C26.2233 13.6612 24.748 13.0501 23.2098 13.0501Z" fill="white"/>
</g>
<defs>
<clipPath id="clip0_9_366">
<rect width="29" height="29" fill="white"/>
</clipPath>
</defs>
</svg>
