<svg xmlns="http://www.w3.org/2000/svg" width="33.3" height="35.607" viewBox="0 0 33.3 35.607">
  <path id="路径_97116" data-name="路径 97116" d="M25.655,6.674a3.858,3.858,0,0,1,1.9.462,5.45,5.45,0,0,1,1.438,1.136,5.038,5.038,0,0,1,.923,1.456,3.726,3.726,0,0,1,.32,1.385V31.17a4.071,4.071,0,0,1-.408,1.846A4.421,4.421,0,0,1,28.761,34.4a5.046,5.046,0,0,1-1.473.888,4.453,4.453,0,0,1-1.633.32H8.153a3.387,3.387,0,0,1-1.473-.391,6.226,6.226,0,0,1-1.491-1.03,5.834,5.834,0,0,1-1.154-1.473,3.451,3.451,0,0,1-.462-1.686V11.254A3.794,3.794,0,0,1,3.928,9.71a6.162,6.162,0,0,1,.923-1.473A5.154,5.154,0,0,1,6.165,7.118a3.009,3.009,0,0,1,1.562-.444H25.655ZM23.56,28.862a2.184,2.184,0,0,0,1.58-.639,2.1,2.1,0,0,0,.657-1.562,2.242,2.242,0,0,0-2.237-2.237H10.247a2.242,2.242,0,0,0-2.237,2.237,2.1,2.1,0,0,0,.657,1.562,2.184,2.184,0,0,0,1.58.639Zm0-8.875a2.184,2.184,0,0,0,1.58-.639,2.1,2.1,0,0,0,.657-1.562,2.242,2.242,0,0,0-2.237-2.237H10.247a2.242,2.242,0,0,0-2.237,2.237,2.1,2.1,0,0,0,.657,1.562,2.184,2.184,0,0,0,1.58.639ZM29.844,0a4.747,4.747,0,0,1,2.8.905,9.266,9.266,0,0,1,2.219,2.237,11.393,11.393,0,0,1,1.473,2.876,8.729,8.729,0,0,1,.533,2.822V27.691a2.3,2.3,0,0,1-.444,1.367,4.41,4.41,0,0,1-1.083,1.065,5.887,5.887,0,0,1-1.385.71,4.136,4.136,0,0,1-1.385.266h-.142V9.9a6.39,6.39,0,0,0-1.527-3.763,5.918,5.918,0,0,0-3.3-1.7H10.283a.609.609,0,0,0,.036-.249,2.926,2.926,0,0,1,.426-1.456,5.229,5.229,0,0,1,1.118-1.349A6.383,6.383,0,0,1,13.407.391,4.06,4.06,0,0,1,15.111,0H29.844Z" transform="translate(-3.573)" fill="#4372c3"/>
</svg>
