<svg width="30" height="30" viewBox="0 0 30 30" fill="none" xmlns="http://www.w3.org/2000/svg">
<path d="M22.0697 20.4741V11.2404C22.0697 9.42263 20.5957 7.94963 18.78 7.94963H11.5811H9.50061H7.92636H7.06105C5.24324 7.94963 3.77136 9.42244 3.77136 11.2404V22.9607C3.77136 24.7764 5.24324 26.25 7.06105 26.25H18.7802C20.598 26.25 22.0699 24.7764 22.0699 22.9607V22.0506H22.0955V20.4675C22.0865 20.4675 22.0804 20.472 22.0697 20.4741ZM19.3535 19.9725V21.2205C19.3535 21.2458 19.3466 21.273 19.3466 21.2987C19.3048 22.5396 18.29 23.5341 17.04 23.5341H8.79899C7.52174 23.5341 6.4873 22.4979 6.4873 21.2205V12.9782C6.4873 11.7409 7.46174 10.7372 8.68499 10.6755C8.72286 10.6736 8.76111 10.6646 8.79899 10.6646H10.0127H17.04C18.3191 10.6646 19.3535 11.7019 19.3535 12.9782V19.9725ZM26.2243 16.2744V7.04081C26.2243 5.223 24.7504 3.75 22.9346 3.75H15.7357H13.6552H12.081H11.2157C9.39786 3.75 7.92599 5.22281 7.92599 7.04081V7.17188H11.2974C11.6927 6.76725 12.2357 6.50625 12.8398 6.47587C12.8775 6.474 12.9157 6.465 12.9536 6.465H14.1673H21.1946C22.4737 6.465 23.5082 7.50225 23.5082 8.77856V15.7727V17.0207C23.5082 17.046 23.5012 17.0732 23.5012 17.0989C23.4755 17.8581 23.085 18.5237 22.5 18.927V22.0502H22.9346C24.7524 22.0502 26.2243 20.5766 26.2243 18.7609V17.8507H26.25V16.2677C26.2412 16.2679 26.235 16.2722 26.2243 16.2744Z" fill="#5965F1"/>
</svg>
