<svg xmlns="http://www.w3.org/2000/svg" width="29.725" height="33" viewBox="0 0 29.725 33">
  <path id="路径_97118" data-name="路径 97118" d="M145.133,69.175H137.1a3.061,3.061,0,0,1-2.167-1,2.748,2.748,0,0,0-2.085-.916h-3.276a2.748,2.748,0,0,0-2.085.916,3.062,3.062,0,0,1-2.167,1H117.28a.936.936,0,0,0-.936.936v3.44a.931.931,0,0,0,.964.975h1.842V98.538a1.535,1.535,0,0,0,1.483,1.717h11.2l1.138.009h8.784l.029-.009a1.535,1.535,0,0,0,1.482-1.717V74.527h1.842a.931.931,0,0,0,.964-.975v-3.44A.936.936,0,0,0,145.133,69.175Zm-17.179,25.28a1.14,1.14,0,1,1-2.281,0V76.629a1.14,1.14,0,1,1,2.281,0Zm8.606,0a1.141,1.141,0,0,1-2.281,0V76.629a1.141,1.141,0,0,1,2.281,0Z" transform="translate(-116.344 -67.263)" fill="#4372c3"/>
</svg>
