<svg xmlns="http://www.w3.org/2000/svg" width="59.421" height="54.5" viewBox="0 0 59.421 54.5">
  <g id="组_58488" data-name="组 58488" transform="translate(0 -42.4)">
    <path id="路径_97103" data-name="路径 97103" d="M59.421,89.379a7.473,7.473,0,0,1-7.428,7.52H7.428A7.481,7.481,0,0,1,0,89.379V66.83a7.417,7.417,0,0,1,1.033-3.754S2.565,58.184,9.151,45.6c1.99-3.2,3.847-3.2,5.9-3.2H44.386c2.037,0,3.894,0,6.052,3.516,6.534,12.488,7.95,17.153,7.95,17.153a7.508,7.508,0,0,1,1.033,3.754ZM17.8,46.16c-1.665,0-3.174,0-4.793,2.617C11.536,51.6,9.192,56.118,7.52,59.321H20.426l2.6-13.149L17.8,46.16Zm14.176,0h-5.24l-2.6,13.149H34.863ZM35.281,63.07H24.14v6.267a2.976,2.976,0,0,0,2.785,3.134H32.5a2.976,2.976,0,0,0,2.785-3.134ZM46.556,49.033c-1.752-2.878-3.261-2.878-4.921-2.878h-5.53l2.89,13.155h12.9C50.281,56.211,48.03,51.87,46.556,49.033Zm9.151,17.8a3.737,3.737,0,0,0-3.714-3.754h-13V71.53a4.672,4.672,0,0,1-4.642,4.7H25.068a4.668,4.668,0,0,1-4.642-4.7V63.07h-13a3.737,3.737,0,0,0-3.714,3.754V89.379a3.733,3.733,0,0,0,3.714,3.754h44.56A3.737,3.737,0,0,0,55.7,89.379V66.83Zm-6.5,22.55H32.5a.934.934,0,0,1-.928-.94v-1.88a.934.934,0,0,1,.928-.94H49.208a.934.934,0,0,1,.928.94v1.88A.935.935,0,0,1,49.2,89.379Zm0-5.635H39.923a.934.934,0,0,1-.928-.94v-1.88a.934.934,0,0,1,.928-.94h9.284a.934.934,0,0,1,.928.94V82.8A.935.935,0,0,1,49.2,83.745Zm0,0" fill="#4e71bd"/>
    <path id="路径_97104" data-name="路径 97104" d="M171.948,693.489H162.64a.944.944,0,0,1-.94-.94V690.64a.944.944,0,0,1,.94-.94h9.308a.944.944,0,0,1,.94.94v1.909A.951.951,0,0,1,171.948,693.489Zm7.335,5.646H162.64a.944.944,0,0,1-.94-.94v-1.909a.944.944,0,0,1,.94-.94h16.648a.944.944,0,0,1,.94.94V698.2A.949.949,0,0,1,179.282,699.135Zm0,0" transform="translate(-152.317 -609.738)" fill="#4e71bd"/>
  </g>
</svg>
