<svg xmlns="http://www.w3.org/2000/svg" xmlns:xlink="http://www.w3.org/1999/xlink" width="110" height="110" viewBox="0 0 110 110">
  <defs>
    <linearGradient id="linear-gradient" x1="0.5" x2="0.5" y2="1" gradientUnits="objectBoundingBox">
      <stop offset="0" stop-color="#46b0f2"/>
      <stop offset="1" stop-color="#0a517b"/>
    </linearGradient>
  </defs>
  <g id="组_17" data-name="组 17" transform="translate(-578 -368)">
    <rect id="矩形_21416" data-name="矩形 21416" width="110" height="110" rx="20" transform="translate(578 368)" fill="url(#linear-gradient)"/>
    <path id="路径_76233" data-name="路径 76233" d="M118.172,123.383H71.725a9.289,9.289,0,0,1-9.289-9.289V102.481a2.323,2.323,0,0,1,2.322-2.322H69.4a2.322,2.322,0,0,1,2.322,2.322v6.967a4.644,4.644,0,0,0,4.645,4.645h37.158a4.644,4.644,0,0,0,4.645-4.645v-6.967a2.322,2.322,0,0,1,2.323-2.322h4.645a2.322,2.322,0,0,1,2.322,2.322v11.612a9.288,9.288,0,0,1-9.289,9.289ZM76.069,77.82a2.407,2.407,0,0,1,3.4,0L90.3,88.652V65.269a2.323,2.323,0,0,1,2.322-2.323h4.645a2.324,2.324,0,0,1,2.323,2.323V88.652L110.426,77.82a2.406,2.406,0,0,1,3.4,0l3.4,3.4a2.407,2.407,0,0,1,0,3.4L98.052,103.809a6.249,6.249,0,0,1-3.077,1,6.428,6.428,0,0,1-3.128-1L72.665,84.628a2.407,2.407,0,0,1,0-3.4l3.4-3.4Z" transform="translate(538.051 329.836)" fill="#fff"/>
  </g>
</svg>
