<svg xmlns="http://www.w3.org/2000/svg" width="49" height="49" viewBox="0 0 49 49">
  <g id="组_58727" data-name="组 58727" transform="translate(-36 -1199)">
    <g id="组_58726" data-name="组 58726" transform="translate(22 -2155)">
      <g id="组_58469" data-name="组 58469" transform="translate(14 3354)">
        <g id="组_58390" data-name="组 58390">
          <g id="椭圆_3624" data-name="椭圆 3624" fill="none" stroke="#4372c3" stroke-width="1">
            <circle cx="24.5" cy="24.5" r="24.5" stroke="none"/>
            <circle cx="24.5" cy="24.5" r="24" fill="none"/>
          </g>
        </g>
      </g>
    </g>
    <path id="路径_97231" data-name="路径 97231" d="M29.128,153.611a3.765,3.765,0,0,1-.248,1.369,4.135,4.135,0,0,1-.685,1.165,3.676,3.676,0,0,1-1.034.859,3.957,3.957,0,0,1-1.3.451v.058H6.321a.115.115,0,0,0-.073.015.115.115,0,0,1-.073.015.2.2,0,0,1-.087-.015A.2.2,0,0,0,6,157.514H5.826v-.029a6.059,6.059,0,0,1-4.136-1.879,6.224,6.224,0,0,1-1.238-1.922A6,6,0,0,1,0,151.368a5.9,5.9,0,0,1,.451-2.3,6.226,6.226,0,0,1,1.223-1.893,6.529,6.529,0,0,1,1.806-1.34,5.815,5.815,0,0,1,2.228-.612,10.034,10.034,0,0,1,1.049-3.539,10.219,10.219,0,0,1,2.17-2.869,10,10,0,0,1,3.044-1.922,9.646,9.646,0,0,1,3.67-.7,9.8,9.8,0,0,1,3.9.786,9.949,9.949,0,0,1,3.19,2.155,10.292,10.292,0,0,1,2.141,3.19,9.7,9.7,0,0,1,.786,3.889,9.41,9.41,0,0,1-.175,1.82,9.848,9.848,0,0,1-.5,1.7.674.674,0,0,0,.131-.015.675.675,0,0,1,.131-.015,3.737,3.737,0,0,1,1.515.306,3.953,3.953,0,0,1,1.223.83,3.908,3.908,0,0,1,.83,1.238,3.841,3.841,0,0,1,.306,1.529ZM19.545,149.3q.35-.583.2-.67a1.8,1.8,0,0,0-.728-.087q-.35,0-.976-.015t-.947-.015a.562.562,0,0,1-.6-.379,3.325,3.325,0,0,1-.131-1.049q0-.932-.015-1.5t-.015-1.238a4.324,4.324,0,0,0-.1-1.107q-.1-.35-.83-.35-.524,0-.786.015t-.728.015q-.786,0-.976.451a2.286,2.286,0,0,0-.189.888v.932q0,.379.015.728t.015.728v.845a1.728,1.728,0,0,1-.117.714q-.117.248-.553.248a4.327,4.327,0,0,1-.481.044l-.626.029q-.32.015-.612.015H9.9q-.612,0-.728.379t.379.961q.5.612,1.063,1.325t1.121,1.442q.553.728,1.063,1.413t.947,1.18a.868.868,0,0,0,1.515-.029q.437-.5,1.019-1.282t1.194-1.646q.612-.859,1.165-1.66t.9-1.325Z" transform="translate(45.936 1076.133)" fill="#3c74cc"/>
  </g>
</svg>
