<svg xmlns="http://www.w3.org/2000/svg" width="49" height="49" viewBox="0 0 49 49">
  <g id="修改交易密码" transform="translate(-36 -304)">
    <g id="组_58470" data-name="组 58470" transform="translate(-13 -1195)">
      <g id="椭圆_3630" data-name="椭圆 3630" transform="translate(49 1499)" fill="none" stroke="#14236f" stroke-width="1">
        <circle cx="24.5" cy="24.5" r="24.5" stroke="none"/>
        <circle cx="24.5" cy="24.5" r="24" fill="none"/>
      </g>
    </g>
    <g id="组_58480" data-name="组 58480" transform="translate(-95.003 274.903)">
      <path id="路径_97091" data-name="路径 97091" d="M269.62,241.019a1.22,1.22,0,0,1,1.22,1.22v5.083a1.22,1.22,0,0,1-2.44,0v-5.083A1.224,1.224,0,0,1,269.62,241.019Zm12.025-.119a1.22,1.22,0,0,1,1.22,1.22v.7a1.22,1.22,0,0,1-2.44,0v-.7A1.224,1.224,0,0,1,281.645,240.9Z" transform="translate(-120.116 -195.892)" fill="#0f2474"/>
      <path id="路径_97092" data-name="路径 97092" d="M155.518,41.437a4.793,4.793,0,0,1,4.794,4.794h2.437a7.231,7.231,0,0,0-14.462,0h2.437A4.793,4.793,0,0,1,155.518,41.437Zm10.888,24.154V52.028a2.024,2.024,0,0,0-1.931-1.815H146.626a2.028,2.028,0,0,0-2.026,2.021V65.454a2.033,2.033,0,0,0,1.723,1.741h18.494A2.032,2.032,0,0,0,166.406,65.591Z" transform="translate(0)" fill="#0f2474"/>
    </g>
    <rect id="矩形_21505" data-name="矩形 21505" width="13" height="5" rx="2.5" transform="translate(54 332)" fill="#fff"/>
  </g>
</svg>
