<svg xmlns="http://www.w3.org/2000/svg" width="52.099" height="52.099" viewBox="0 0 52.099 52.099">
  <path id="路径_97110" data-name="路径 97110" d="M77.868,95.576l8.567,7.6a1.045,1.045,0,0,0,.189.233,2.3,2.3,0,0,0,1.545.553h.062a2.28,2.28,0,0,0,1.519-.556,1.015,1.015,0,0,0,.2-.258l13.59-15.323a1.863,1.863,0,0,0,0-2.835,2.356,2.356,0,0,0-3.078.044L88.14,99.146,80.9,92.738a2.394,2.394,0,0,0-3.035,0,1.86,1.86,0,0,0,0,2.839Zm31.892-29.694a3.723,3.723,0,0,0-3.1-1.657H73.43a3.723,3.723,0,0,0-3.1,1.657l-6.291,9.5V112.6a3.734,3.734,0,0,0,3.722,3.722h44.655a3.734,3.734,0,0,0,3.722-3.722V75.378Zm2.658,46.72H67.764V79.1h44.655ZM67.764,75.378l5.444-7.408,33.878-.029,5.333,7.437Z" transform="translate(-64.042 -64.225)" fill="#4372c3"/>
</svg>
