<svg height="1024" width="1024" xmlns="http://www.w3.org/2000/svg" xmlns:cc="http://creativecommons.org/ns#" xmlns:dc="http://purl.org/dc/elements/1.1/" xmlns:rdf="http://www.w3.org/1999/02/22-rdf-syntax-ns#" version="1.1" viewBox="0 0 26.458 26.458"><g transform="translate(0 -270.54)"><path d="m1.3947 275.21c-0.76818 0-1.3947 0.62682-1.3947 1.395v14.338c0 0.76819 0.62649 1.3937 1.3947 1.3937h23.669c0.76818 0 1.395-0.62548 1.395-1.3937v-14.338c0-0.76818-0.62682-1.395-1.395-1.395zm0 0.51414h23.669c0.4926 0 0.88086 0.38827 0.88086 0.88086v14.338c0 0.4926-0.38826 0.88053-0.88086 0.88053h-23.669c-0.4926 0-0.88053-0.38793-0.88053-0.88053v-14.338c0-0.49259 0.38793-0.88086 0.88053-0.88086zm6.0307 3.7046c-1.1447 0-2.0683 0.96479-2.0683 2.1365 0 0.89884 0.54453 1.6732 1.3144 1.986-1.7089 0.38191-2.9913 1.9432-2.9913 3.817a0.25676 0.25676 0 0 0 0 3e-3c6.37e-4 0.0571 0.0023 0.11478 0.0053 0.17183a0.25676 0.25676 0 0 0 0.2564 0.24269h7.064a0.25676 0.25676 0 0 0 0.2564-0.23902c0.0039-0.057 0.0061-0.11468 0.0077-0.17182a0.25676 0.25676 0 0 0 0-6e-3c5.7e-5 -1.8963-1.3114-3.474-3.0508-3.832 0.74948-0.32294 1.2757-1.0875 1.2757-1.971 0-1.1717-0.9249-2.1365-2.0696-2.1365zm7.7412 0.10497a0.25712 0.25712 0 1 0 0 0.51415h6.2516a0.25712 0.25712 0 1 0 0-0.51415zm-7.7412 0.40784c0.85693 0 1.5555 0.71957 1.5555 1.6237s-0.69854 1.6223-1.5555 1.6223c-0.85693 0-1.5555-0.71824-1.5555-1.6223s0.69854-1.6237 1.5555-1.6237zm6.6889 2.2174a0.25688 0.25688 0 0 0 0.02507 0.51314h8.6475a0.25676 0.25676 0 1 0 0-0.51314h-8.6475a0.25676 0.25676 0 0 0-0.02507 0zm-6.6384 1.7968c1.7777-6e-5 3.2107 1.4714 3.2624 3.3165h-6.5257c0.0517-1.845 1.4858-3.3164 3.2634-3.3165zm6.6384 0.82737a0.25688 0.25688 0 0 0 0.02507 0.51314h8.6475a0.25676 0.25676 0 1 0 0-0.51314h-8.6475a0.25676 0.25676 0 0 0-0.02507 0zm7.313 2.6242a0.25676 0.25676 0 0 0-9e-3 3.3e-4h-6.2516a0.25676 0.25676 0 1 0 0 0.51281h6.2516a0.25676 0.25676 0 1 0 9e-3 -0.51314z" color="#000000" color-rendering="auto" dominant-baseline="auto" image-rendering="auto" shape-rendering="auto" solid-color="#000000" style="font-feature-settings:normal;font-variant-alternates:normal;font-variant-caps:normal;font-variant-ligatures:normal;font-variant-numeric:normal;font-variant-position:normal;isolation:auto;mix-blend-mode:normal;shape-padding:0;text-decoration-color:#000000;text-decoration-line:none;text-decoration-style:solid;text-indent:0;text-orientation:mixed;text-transform:none;white-space:normal;"></path></g></svg>