<svg id="组_58388" data-name="组 58388" xmlns="http://www.w3.org/2000/svg" width="49" height="49" viewBox="0 0 49 49">
  <g id="组_58386" data-name="组 58386">
    <g id="椭圆_3622" data-name="椭圆 3622" fill="none" stroke="#4372c3" stroke-width="1">
      <circle cx="24.5" cy="24.5" r="24.5" stroke="none"/>
      <circle cx="24.5" cy="24.5" r="24" fill="none"/>
    </g>
    <path id="路径_97054" data-name="路径 97054" d="M193.409,233.195a14.5,14.5,0,0,1,1.7,2.128,3.091,3.091,0,1,0-1.7-2.128Zm-6.12-2.345a9.334,9.334,0,0,0,.107,3.7l2.559,1.623.127,3.026a9.289,9.289,0,0,0,2.587,1.718,4.114,4.114,0,0,1-1.392.241H174.789a4.122,4.122,0,0,1-4.122-4.122v-1.252a14.483,14.483,0,0,1,6.7-5.835,9.283,9.283,0,0,0,9.927.9Zm-4.257-17.516a7.213,7.213,0,0,1,7.213,7.213v2.061a7.213,7.213,0,0,1-14.427,0v-2.061A7.213,7.213,0,0,1,183.032,213.333Zm11.061,26.02a7.206,7.206,0,0,1-2.41-1.394l-.109-2.63-2.225-1.411a7.25,7.25,0,0,1,0-2.784l2.225-1.411.109-2.63a7.206,7.206,0,0,1,2.411-1.394l2.334,1.221,2.335-1.221a7.193,7.193,0,0,1,2.41,1.394l.109,2.63,2.225,1.412a7.249,7.249,0,0,1,0,2.783l-2.225,1.412-.109,2.629a7.206,7.206,0,0,1-2.411,1.4l-2.334-1.222-2.335,1.222Z" transform="translate(-162.655 -202.745)" fill="#4372c3"/>
  </g>
</svg>
