<svg xmlns="http://www.w3.org/2000/svg" width="108" height="108" viewBox="0 0 108 108">
  <g id="组_58711" data-name="组 58711" transform="translate(-72 -615)">
    <g id="组_58669" data-name="组 58669" transform="translate(35.264 538.636)">
      <path id="路径_97200" data-name="路径 97200" d="M119.2,129.213a5.327,5.327,0,0,1,.83,2.855v18.271a7.99,7.99,0,0,1-7.99,7.99H69.43a7.99,7.99,0,0,1-7.99-7.99V132.088a5.327,5.327,0,0,1,8.19-4.492L90.68,141.018l21.169-13.446A5.327,5.327,0,0,1,119.2,129.213ZM104.053,102.4a7.99,7.99,0,0,1,7.99,7.99v13.316L90.78,137.023,69.43,123.706V110.39a7.99,7.99,0,0,1,7.99-7.99Z" transform="translate(0 0)" fill="#419df4"/>
      <path id="路径_97201" data-name="路径 97201" d="M379.621,240.581a2.35,2.35,0,0,1-3.31,0l-6.067-6.032-.085-.085a5.406,5.406,0,0,1,.085-7.59,5.484,5.484,0,0,1,7.722,0,5.484,5.484,0,0,1,7.722,0,5.406,5.406,0,0,1,.1,7.577l-.1.1-6.067,6.032Z" transform="translate(-287.229 -114.893)" fill="#fff"/>
    </g>
    <g id="椭圆_3637" data-name="椭圆 3637" transform="translate(72 615)" fill="none" stroke="#5a9bed" stroke-width="3">
      <circle cx="54" cy="54" r="54" stroke="none"/>
      <circle cx="54" cy="54" r="52.5" fill="none"/>
    </g>
  </g>
</svg>
