<svg xmlns="http://www.w3.org/2000/svg" width="108" height="108" viewBox="0 0 108 108">
  <g id="组_58719" data-name="组 58719" transform="translate(-571 -1029)">
    <g id="椭圆_3645" data-name="椭圆 3645" transform="translate(571 1029)" fill="none" stroke="#5a9bed" stroke-width="3">
      <circle cx="54" cy="54" r="54" stroke="none"/>
      <circle cx="54" cy="54" r="52.5" fill="none"/>
    </g>
    <g id="组_58673" data-name="组 58673" transform="translate(468.573 949.679)">
      <path id="路径_97213" data-name="路径 97213" d="M518.928,552.591a46.432,46.432,0,0,1-4.868-.245,2.27,2.27,0,1,1,.5-4.513c5.663.624,14.346.086,15.863-3.07a2.273,2.273,0,0,1,4.1,1.969C532.112,551.711,524.224,552.591,518.928,552.591Z" transform="translate(-356.752 -411.837)" fill="#419df4"/>
      <path id="路径_97214" data-name="路径 97214" d="M182.588,138.492a2.271,2.271,0,0,1-2.275-2.275v-7.84l-3.045-1.089a2.281,2.281,0,0,1-1.517-2.14,20.474,20.474,0,0,0-40.948,0,2.267,2.267,0,0,1-.954,1.847l-1.321.942V136.2a2.275,2.275,0,0,1-4.55,0v-9.442a2.267,2.267,0,0,1,.954-1.847l1.345-.966a25.034,25.034,0,0,1,49.987-.416l3.094,1.1a2.281,2.281,0,0,1,1.517,2.14v9.442A2.289,2.289,0,0,1,182.588,138.492Z" fill="#419df4"/>
      <path id="路径_97215" data-name="路径 97215" d="M192.179,292.042v-.685a13.758,13.758,0,0,0,4.525-5.174,40.219,40.219,0,0,1-6.238.208c-2.275,0-4.22.061-5.406-.073a4.78,4.78,0,0,1-4.024-5.247,4.556,4.556,0,0,1,5.027-4.024c5.063.538,10.653-.049,12.891-.991.1-2.079.073-4.268.073-5.932,0-9.736-5.92-15.508-15.411-15.716h-1.382c-9.491.2-15.178,6.042-15.178,15.79,0,6.017.1,15.839,6.923,21.171v.685c-9.1,1.419-16.071,5.161-16.071,10.1a2.443,2.443,0,0,0,2.312,2.434h44.654c1.26,0,2.837-1.174,2.837-2.434C207.724,297.2,201.291,293.473,192.179,292.042Z" transform="translate(-27.802 -143.326)" fill="#419df4"/>
    </g>
  </g>
</svg>
