<svg xmlns="http://www.w3.org/2000/svg" xmlns:xlink="http://www.w3.org/1999/xlink" width="127" height="127" viewBox="0 0 127 127">
  <defs>
    <linearGradient id="linear-gradient" x1="0.884" y1="0.068" x2="0.111" y2="0.953" gradientUnits="objectBoundingBox">
      <stop offset="0" stop-color="#c5fa60"/>
      <stop offset="0.921" stop-color="#7aad1a"/>
      <stop offset="1" stop-color="#c9ed86"/>
    </linearGradient>
  </defs>
  <g id="组_58689" data-name="组 58689" transform="translate(-561 -1011)">
    <rect id="矩形_22649" data-name="矩形 22649" width="127" height="127" rx="33" transform="translate(561 1011)" fill="url(#linear-gradient)"/>
    <g id="组_58673" data-name="组 58673" transform="translate(456.381 931.245)">
      <path id="路径_97213" data-name="路径 97213" d="M521.759,556.339a65.513,65.513,0,0,1-6.868-.345,3.2,3.2,0,0,1,.708-6.368c7.99.88,20.243.121,22.383-4.332a3.207,3.207,0,0,1,5.781,2.778C540.362,555.1,529.231,556.339,521.759,556.339Z" transform="translate(-345.529 -398.881)" fill="#fff"/>
      <path id="路径_97214" data-name="路径 97214" d="M205.032,154.265a3.2,3.2,0,0,1-3.21-3.21V139.994l-4.3-1.536a3.218,3.218,0,0,1-2.14-3.02,28.889,28.889,0,0,0-57.777,0,3.2,3.2,0,0,1-1.346,2.606l-1.864,1.329v11.666a3.21,3.21,0,1,1-6.42,0V137.716a3.2,3.2,0,0,1,1.346-2.606l1.9-1.363a35.322,35.322,0,0,1,70.53-.587l4.366,1.553a3.218,3.218,0,0,1,2.14,3.02v13.323A3.23,3.23,0,0,1,205.032,154.265Z" fill="#fff"/>
      <path id="路径_97215" data-name="路径 97215" d="M206.264,307.509v-.966c2.813-2.192,5.056-4.314,6.385-7.3a56.744,56.744,0,0,1-8.8.293c-3.21,0-5.954.086-7.628-.1a6.744,6.744,0,0,1-5.678-7.4,6.429,6.429,0,0,1,7.093-5.678c7.145.759,15.031-.069,18.189-1.4.138-2.934.1-6.023.1-8.37,0-13.737-8.352-21.882-21.744-22.176h-1.95c-13.392.276-21.416,8.525-21.416,22.279,0,8.491.138,22.348,9.768,29.872v.966c-12.839,2-22.676,7.283-22.676,14.254a3.446,3.446,0,0,0,3.262,3.434h63.006c1.777,0,4-1.657,4-3.434C228.2,314.792,219.12,309.528,206.264,307.509Z" transform="translate(-26.928 -138.817)" fill="#fff"/>
    </g>
  </g>
</svg>
