<svg width="40" height="40" viewBox="0 0 40 40" fill="none" xmlns="http://www.w3.org/2000/svg">
<g clip-path="url(#clip0_9_257)">
<path d="M40 0H0V40H40V0Z" fill="white" fill-opacity="0.01"/>
<path d="M5 15.0002C5 14.5581 5.17559 14.1342 5.48816 13.8217C5.80072 13.5091 6.22464 13.3335 6.66667 13.3335H33.3333C33.7754 13.3335 34.1993 13.5091 34.5118 13.8217C34.8244 14.1342 35 14.5581 35 15.0002C35 15.4422 34.8244 15.8661 34.5118 16.1787C34.1993 16.4912 33.7754 16.6668 33.3333 16.6668H6.66667C6.22464 16.6668 5.80072 16.4912 5.48816 16.1787C5.17559 15.8661 5 15.4422 5 15.0002ZM5 25.0002C5 24.5581 5.17559 24.1342 5.48816 23.8217C5.80072 23.5091 6.22464 23.3335 6.66667 23.3335H33.3333C33.5522 23.3335 33.7689 23.3766 33.9711 23.4604C34.1733 23.5441 34.3571 23.6669 34.5118 23.8217C34.6666 23.9764 34.7894 24.1601 34.8731 24.3624C34.9569 24.5646 35 24.7813 35 25.0002C35 25.219 34.9569 25.4358 34.8731 25.638C34.7894 25.8402 34.6666 26.0239 34.5118 26.1787C34.3571 26.3334 34.1733 26.4562 33.9711 26.54C33.7689 26.6237 33.5522 26.6668 33.3333 26.6668H6.66667C6.22464 26.6668 5.80072 26.4912 5.48816 26.1787C5.17559 25.8661 5 25.4422 5 25.0002Z" fill="white"/>
<path d="M17.4283 9.99766C16.465 12.4752 15.8333 16.011 15.8333 20.0002C15.8333 23.9893 16.465 27.5252 17.4283 30.0027C17.9117 31.2468 18.4475 32.1402 18.9567 32.6935C19.4642 33.2452 19.8183 33.3335 20 33.3335C20.1817 33.3335 20.5358 33.2452 21.0433 32.6935C21.5525 32.1402 22.0875 31.2468 22.5717 30.0027C23.535 27.5252 24.1667 23.9893 24.1667 20.0002C24.1667 16.011 23.535 12.4752 22.5717 9.99766C22.0883 8.7535 21.5525 7.86016 21.0433 7.30683C20.5358 6.75516 20.1817 6.66683 20 6.66683C19.8183 6.66683 19.4642 6.75516 18.9567 7.30683C18.4475 7.86016 17.9125 8.7535 17.4283 9.99766ZM16.5025 5.051C17.3908 4.0835 18.5708 3.3335 20 3.3335C21.4292 3.3335 22.6092 4.08516 23.4975 5.05016C24.3842 6.01516 25.1058 7.31933 25.6783 8.78933C26.825 11.7418 27.5 15.7052 27.5 20.0002C27.5 24.2952 26.8258 28.2593 25.6783 31.211C25.1067 32.681 24.3842 33.9852 23.4975 34.9493C22.6092 35.9168 21.4292 36.6668 20 36.6668C18.5708 36.6668 17.3908 35.9152 16.5025 34.9502C15.6158 33.9852 14.8942 32.681 14.3217 31.211C13.175 28.2585 12.5 24.2952 12.5 20.0002C12.5 15.7052 13.1742 11.741 14.3217 8.78933C14.8933 7.31933 15.6158 6.01516 16.5025 5.051Z" fill="white"/>
<path d="M3.33331 20.0002C3.33331 10.7952 10.795 3.3335 20 3.3335C29.205 3.3335 36.6666 10.7952 36.6666 20.0002C36.6666 29.2052 29.205 36.6668 20 36.6668C10.795 36.6668 3.33331 29.2052 3.33331 20.0002ZM20 6.66683C12.6358 6.66683 6.66665 12.636 6.66665 20.0002C6.66665 27.3643 12.6358 33.3335 20 33.3335C27.3641 33.3335 33.3333 27.3643 33.3333 20.0002C33.3333 12.636 27.3641 6.66683 20 6.66683Z" fill="white"/>
</g>
<defs>
<clipPath id="clip0_9_257">
<rect width="40" height="40" fill="white"/>
</clipPath>
</defs>
</svg>
