<svg width="40" height="40" viewBox="0 0 40 40" fill="none" xmlns="http://www.w3.org/2000/svg">
<path d="M33 8H29V4H5V36H29V32H33V38C33 38.5304 32.7893 39.0391 32.4142 39.4142C32.0391 39.7893 31.5304 40 31 40H3C2.46956 40 1.96085 39.7893 1.58578 39.4142C1.21071 39.0391 0.999996 38.5304 0.999996 38V2C0.999996 1.46957 1.21071 0.960861 1.58578 0.585789C1.96085 0.210716 2.46956 0 3 0H31C31.5304 0 32.0391 0.210716 32.4142 0.585789C32.7893 0.960861 33 1.46957 33 2V8ZM29 22H15V18H29V12L39 20L29 28V22Z" fill="#CFCFCF"/>
</svg>
