<svg xmlns="http://www.w3.org/2000/svg" width="49" height="49" viewBox="0 0 49 49">
  <g id="组_58504" data-name="组 58504" transform="translate(-2065 -6468)">
    <g id="组_58502" data-name="组 58502" transform="translate(2075.134 6415.929)">
      <path id="路径_97102" data-name="路径 97102" d="M0,67.592V85.551a3.592,3.592,0,0,0,3.592,3.592H13.47a.9.9,0,1,0,0-1.8H3.592a1.8,1.8,0,0,1-1.8-1.8V67.592a1.8,1.8,0,0,1,1.8-1.8H13.47a.9.9,0,0,0,0-1.8H3.592A3.592,3.592,0,0,0,0,67.592Z" fill="#29c2c3"/>
      <path id="路径_97103" data-name="路径 97103" d="M215.047,154.945l-10.169,9.193a1.8,1.8,0,0,1-3-1.333v-3.67a.225.225,0,0,0-.224-.225H192.9a.9.9,0,0,1-.9-.9v-7.464a.9.9,0,0,1,.9-.9h8.755a.225.225,0,0,0,.224-.224v-3.673a1.8,1.8,0,0,1,3-1.333l10.169,9.193A.9.9,0,0,1,215.047,154.945Z" transform="translate(-186.612 -77.709)" fill="#29c2c3"/>
    </g>
    <g id="组_58503" data-name="组 58503" transform="translate(2122 2323)">
      <g id="组_58476" data-name="组 58476" transform="translate(-57 4145)">
        <g id="椭圆_3627" data-name="椭圆 3627" fill="none" stroke="#29c2c3" stroke-width="1">
          <circle cx="24.5" cy="24.5" r="24.5" stroke="none"/>
          <circle cx="24.5" cy="24.5" r="24" fill="none"/>
        </g>
      </g>
    </g>
  </g>
</svg>
