<svg xmlns="http://www.w3.org/2000/svg" width="49.125" height="45.414" viewBox="0 0 49.125 45.414">
  <g id="组_58483" data-name="组 58483" transform="translate(-64.045 -97.89)">
    <path id="路径_97091" data-name="路径 97091" d="M112.643,111.79,103.262,99a2.725,2.725,0,0,0-2.2-1.113H78.2a2.726,2.726,0,0,0-2.026.9L64.744,111.507a2.725,2.725,0,0,0-.1,3.527l21.864,27.25a2.725,2.725,0,0,0,4.251,0l21.811-27.177A2.725,2.725,0,0,0,112.643,111.79ZM88.635,136.224l-18.29-22.8,9.072-10.089H99.684l7.327,9.987Z" fill="#4e71bd"/>
    <path id="路径_97092" data-name="路径 97092" d="M374.841,396.335a2.725,2.725,0,0,0-3.833.4l-3.7,4.567L364,396.832a2.725,2.725,0,1,0-4.381,3.243l5.406,7.3a2.725,2.725,0,0,0,2.131,1.1h.059a2.727,2.727,0,0,0,2.118-1.01l5.913-7.3A2.725,2.725,0,0,0,374.841,396.335Z" transform="translate(-278.859 -281.506)" fill="#4e71bd"/>
  </g>
</svg>
