<svg xmlns="http://www.w3.org/2000/svg" width="49" height="49" viewBox="0 0 49 49">
  <g id="组_58470" data-name="组 58470" transform="translate(-49 -1499)">
    <g id="椭圆_3630" data-name="椭圆 3630" transform="translate(49 1499)" fill="none" stroke="#4d71bd" stroke-width="1">
      <circle cx="24.5" cy="24.5" r="24.5" stroke="none"/>
      <circle cx="24.5" cy="24.5" r="24" fill="none"/>
    </g>
    <path id="路径_97069" data-name="路径 97069" d="M27.055,8.132,25.509,6.588a1.217,1.217,0,0,0-1.7.156L12.173,18.378a1.217,1.217,0,0,0-.156,1.7l1.544,1.546a1.223,1.223,0,0,0,1.705-.159L26.9,9.837A1.221,1.221,0,0,0,27.055,8.132ZM14.734,23.06l.055.047L9.95,25.662H19.74a1.315,1.315,0,0,0,1.316-1.316V16.861l-5.982,5.955A2.354,2.354,0,0,1,14.734,23.06ZM10.49,19.419a1.944,1.944,0,0,1,.447-.718L21.056,8.628V1.316A1.316,1.316,0,0,0,19.74,0H1.316A1.316,1.316,0,0,0,0,1.316V24.344A1.315,1.315,0,0,0,1.316,25.66H7.825l2.6-6.295ZM3.29,1.974H17.108c.729,0,1.316.362,1.316.812s-.589.809-1.316.809H3.29c-.727,0-1.316-.362-1.316-.809S2.563,1.974,3.29,1.974Zm0,4.335H17.108c.729,0,1.316.381,1.316.85s-.589.85-1.316.85H3.29c-.727,0-1.316-.381-1.316-.85S2.563,6.309,3.29,6.309Zm0,6.188c-.727,0-1.316-.395-1.316-.877s.589-.877,1.316-.877h8.554c.727,0,1.316.392,1.316.877s-.589.877-1.316.877Zm7.436,7.677L8.242,25.9l5.53-2.818Z" transform="translate(61 1511)" fill="#4372c3"/>
  </g>
</svg>
