<svg width="50" height="50" viewBox="0 0 50 50" fill="none" xmlns="http://www.w3.org/2000/svg">
<path d="M31.2428 15.4433C31.9189 16.1133 32.7295 16.6506 33.6117 17.0138C34.4955 17.3771 35.4511 17.5664 36.408 17.5664C37.365 17.5664 38.3205 17.3771 39.2044 17.0138C40.0882 16.6506 40.8985 16.1133 41.5747 15.4433C42.2509 14.7732 42.7929 13.9703 43.1576 13.0927C43.5239 12.2166 43.7147 11.2686 43.7147 10.3208C43.7147 9.37298 43.5239 8.42352 43.1576 7.54891C42.7929 6.67131 42.2509 5.8684 41.5747 5.19831C40.8985 4.52821 40.0881 3.99097 39.2044 3.62767C38.3206 3.26442 37.365 3.0752 36.408 3.0752C35.4511 3.0752 34.4955 3.26447 33.6117 3.62767C32.7295 3.99097 31.9189 4.52821 31.2428 5.19831C30.5667 5.86845 30.0248 6.67131 29.6584 7.54891C29.2921 8.42352 29.1028 9.37298 29.1028 10.3208C29.1028 11.2686 29.2921 12.2166 29.6584 13.0927C30.0248 13.9703 30.5667 14.7732 31.2428 15.4433ZM41.5748 34.4724C40.8986 33.8023 40.0882 33.2666 39.2044 32.9034C38.3206 32.5401 37.365 32.3508 36.4081 32.3508C35.4511 32.3508 34.4955 32.54 33.6118 32.9034C32.7295 33.2666 31.919 33.8023 31.2428 34.4724C30.5667 35.144 30.0248 35.947 29.6585 36.8231C29.2921 37.6992 29.1029 38.6485 29.1029 39.5949C29.1029 40.5444 29.2921 41.4922 29.6585 42.3683C30.0248 43.2444 30.5667 44.0489 31.2428 44.7175C31.919 45.3891 32.7295 45.9263 33.6118 46.2896C34.4955 46.653 35.4511 46.8392 36.4081 46.8392C37.365 46.8392 38.3206 46.653 39.2044 46.2896C40.0882 45.9263 40.8986 45.3891 41.5748 44.7175C42.2509 44.0489 42.7929 43.2445 43.1577 42.3683C43.524 41.4922 43.7147 40.5444 43.7147 39.5949C43.7147 38.6486 43.524 37.6993 43.1577 36.8231C42.7929 35.947 42.2509 35.1441 41.5748 34.4724ZM21.2619 17.6397C20.2759 16.6628 19.0945 15.8798 17.8063 15.3502C16.5165 14.8221 15.1229 14.5473 13.7293 14.5473C12.3343 14.5473 10.9407 14.8221 9.65238 15.3502C8.36416 15.8798 7.18271 16.6628 6.19667 17.6397C5.21064 18.6182 4.41998 19.7903 3.88729 21.0679C3.3531 22.3454 3.07679 23.7268 3.07679 25.1097C3.07679 26.4926 3.35305 27.8754 3.88729 29.1515C4.42003 30.4306 5.21064 31.6029 6.19667 32.5797C7.18271 33.5566 8.36411 34.3396 9.65238 34.8692C10.9407 35.3973 12.3342 35.6721 13.7293 35.6721C15.1229 35.6721 16.5165 35.3973 17.8063 34.8692C19.0944 34.3396 20.2759 33.5566 21.2619 32.5797C22.248 31.6028 23.0371 30.4305 23.5713 29.1515C24.104 27.8754 24.3818 26.4926 24.3818 25.1097C24.3818 23.7268 24.104 22.3454 23.5713 21.0679C23.0371 19.7904 22.248 18.6182 21.2619 17.6397Z" fill="url(#paint0_linear_232_42)"/>
<defs>
<linearGradient id="paint0_linear_232_42" x1="23.3958" y1="3.0752" x2="23.3958" y2="46.8392" gradientUnits="userSpaceOnUse">
<stop stop-color="#8263FF"/>
<stop offset="1" stop-color="#9FA1E2"/>
</linearGradient>
</defs>
</svg>
