<svg xmlns="http://www.w3.org/2000/svg" width="62.701" height="53.844" viewBox="0 0 62.701 53.844">
  <g id="组_58490" data-name="组 58490" transform="translate(-63.149 -126.925)">
    <path id="路径_97111" data-name="路径 97111" d="M114.551,180.769H69.858a6.717,6.717,0,0,1-6.709-6.709V133.633a6.717,6.717,0,0,1,6.709-6.709h44.9a6.716,6.716,0,0,1,6.709,6.709v6.572a2.236,2.236,0,1,1-4.472,0v-6.572a2.239,2.239,0,0,0-2.237-2.236h-44.9a2.24,2.24,0,0,0-2.236,2.236V174.06a2.238,2.238,0,0,0,2.236,2.236h44.693a2.237,2.237,0,0,0,2.236-2.236v-6.914a2.236,2.236,0,1,1,4.473,0v6.914a6.716,6.716,0,0,1-6.709,6.709Z" transform="translate(0 0)" fill="#4372c3"/>
    <path id="路径_97112" data-name="路径 97112" d="M633.48,481.783s0,0,0-.005h0a2.189,2.189,0,0,0-4.378,0h0v.011h0a2.189,2.189,0,0,0,4.378,0h0S633.48,481.784,633.48,481.783Z" transform="translate(-526.385 -328.017)" fill="#4372c3"/>
    <path id="路径_97113" data-name="路径 97113" d="M542.746,401.03H519.628a3.978,3.978,0,0,1-3.973-3.973v-9.873a3.978,3.978,0,0,1,3.973-3.973h23.118a3.978,3.978,0,0,1,3.973,3.973v9.873A3.978,3.978,0,0,1,542.746,401.03ZM519.989,396.7h22.4v-9.151h-22.4Z" transform="translate(-420.87 -238.367)" fill="#4372c3"/>
  </g>
</svg>
