<svg id="组_58500" data-name="组 58500" xmlns="http://www.w3.org/2000/svg" width="90.758" height="90.758" viewBox="0 0 90.758 90.758">
  <path id="路径_97102" data-name="路径 97102" d="M182.322,171.712a10.59,10.59,0,1,0,10.59,10.59A10.6,10.6,0,0,0,182.322,171.712Z" transform="translate(-156.512 -156.493)" fill="#fff"/>
  <path id="路径_97103" data-name="路径 97103" d="M75.821,0H14.937A14.955,14.955,0,0,0,0,14.939V75.821A14.957,14.957,0,0,0,14.937,90.758H75.824A14.958,14.958,0,0,0,90.758,75.821V14.939A14.955,14.955,0,0,0,75.821,0Zm11.15,56.032L61.938,31a1.946,1.946,0,0,0-2.674,0L34.507,55.752l-8.448-8.446a1.941,1.941,0,0,0-2.675,0l-19.6,19.6V14.939A11.167,11.167,0,0,1,14.937,3.783H75.821a11.165,11.165,0,0,1,11.15,11.156Z" fill="#fff"/>
</svg>
