<svg xmlns="http://www.w3.org/2000/svg" xmlns:xlink="http://www.w3.org/1999/xlink" width="110" height="110" viewBox="0 0 110 110">
  <defs>
    <linearGradient id="linear-gradient" x1="0.5" x2="0.5" y2="1" gradientUnits="objectBoundingBox">
      <stop offset="0" stop-color="#46b0f2"/>
      <stop offset="1" stop-color="#0a517b"/>
    </linearGradient>
  </defs>
  <g id="组_15" data-name="组 15" transform="translate(-234 -368)">
    <rect id="矩形_21414" data-name="矩形 21414" width="110" height="110" rx="20" transform="translate(234 368)" fill="url(#linear-gradient)"/>
    <g id="组_14" data-name="组 14" transform="translate(255.732 390.199)">
      <path id="路径_76229" data-name="路径 76229" d="M30.354,263.845H6.906A6.406,6.406,0,0,1,.5,257.438V230.4A6.406,6.406,0,0,1,6.906,224H30.354A6.406,6.406,0,0,1,36.76,230.4v27.035a6.406,6.406,0,0,1-6.406,6.406ZM6.906,229.122A1.281,1.281,0,0,0,5.625,230.4v27.035a1.281,1.281,0,0,0,1.281,1.281H30.354a1.281,1.281,0,0,0,1.281-1.281V230.4a1.281,1.281,0,0,0-1.281-1.281Z" transform="translate(0 -209.647)" fill="#fff"/>
      <path id="路径_76230" data-name="路径 76230" d="M104.409,104.644H86.343A3.844,3.844,0,0,1,82.5,100.8V94.843A3.844,3.844,0,0,1,86.343,91h18.066a3.844,3.844,0,0,1,3.844,3.844V100.8A3.844,3.844,0,0,1,104.409,104.644ZM87.624,99.519h15.5v-3.4h-15.5Zm52.532,51.251a2.563,2.563,0,0,1-2.563-2.563V113.741a7.3,7.3,0,0,0-14.542,0V136.1a14.671,14.671,0,0,1-14.671,14.671H106.2a13.561,13.561,0,0,1-13.517-13.517,2.563,2.563,0,0,1,5.125,0,8.421,8.421,0,0,0,8.392,8.392h2.178a9.569,9.569,0,0,0,9.545-9.545V113.741a12.428,12.428,0,0,1,24.857.064v34.4a2.563,2.563,0,0,1-2.627,2.563Z" transform="translate(-76.746 -85.169)" fill="#fff"/>
      <path id="路径_76231" data-name="路径 76231" d="M158.931,9.61a2.563,2.563,0,0,1-2.563-2.563V2.563a2.563,2.563,0,1,1,5.125,0V7.047A2.563,2.563,0,0,1,158.931,9.61Zm8.713,0a2.563,2.563,0,0,1-2.563-2.563V2.563a2.563,2.563,0,1,1,5.125,0V7.047a2.563,2.563,0,0,1-2.563,2.563Zm-8.584,36.452a2.563,2.563,0,0,1-1.794-4.356l5.83-5.83h-5.509a2.563,2.563,0,0,1-1.794-4.356l8.2-8.2a2.582,2.582,0,0,1,3.652,3.652l-3.78,3.78h5.445a2.563,2.563,0,0,1,1.794,4.356l-10.25,10.186a2.562,2.562,0,0,1-1.794.769Z" transform="translate(-144.657 0)" fill="#fff"/>
    </g>
  </g>
</svg>
