<svg width="40" height="40" viewBox="0 0 40 40" fill="none" xmlns="http://www.w3.org/2000/svg">
<path d="M16.5229 15L16.5236 20.9378L16.5288 21.1222L16.534 21.2133C16.6025 22.1565 17.0252 23.0388 17.7172 23.6832C18.4093 24.3276 19.3195 24.6863 20.2651 24.6874L20.4059 24.6852C21.3744 24.6476 22.2906 24.2361 22.962 23.5372C23.6335 22.8382 24.0079 21.9063 24.0066 20.937V15H32.6622C33.448 15 34.2016 15.3122 34.7573 15.8678C35.313 16.4235 35.6251 17.1771 35.6251 17.963V30.7874C35.6251 31.5732 35.313 32.3269 34.7573 32.8825C34.2016 33.4382 33.448 33.7504 32.6622 33.7504H7.33772C6.55189 33.7504 5.79825 33.4382 5.24259 32.8825C4.68692 32.3269 4.37476 31.5732 4.37476 30.7874V17.963C4.37476 17.1771 4.68692 16.4235 5.24259 15.8678C5.79825 15.3122 6.55189 15 7.33772 15H16.5229Z" fill="white"/>
<path d="M21.0852 4.6858L21.1622 4.75987L26.2178 10.0725C26.6918 10.571 26.6748 11.3621 26.18 11.8399C25.9564 12.0561 25.6594 12.1801 25.3483 12.1869C25.0373 12.1938 24.7352 12.0831 24.5022 11.8769L24.4244 11.8028L21.5059 8.73617L21.5067 20.9377C21.5067 21.628 20.9511 22.1873 20.2652 22.1873C19.951 22.1864 19.6488 22.0667 19.4192 21.8522C19.1896 21.6377 19.0496 21.3444 19.0274 21.031L19.0237 20.9377V8.52432L15.5311 11.8458C15.306 12.0604 15.0081 12.1822 14.6971 12.1869C14.3861 12.1915 14.0848 12.0787 13.8533 11.871L13.7763 11.7954C13.563 11.5673 13.4424 11.2679 13.4379 10.9557C13.4334 10.6435 13.5453 10.3407 13.7518 10.1065L13.8259 10.0288L19.4133 4.71617C19.6375 4.50252 19.9337 4.38083 20.2433 4.3752C20.5529 4.36958 20.8534 4.48043 21.0852 4.6858Z" fill="white" fill-opacity="0.7"/>
</svg>
