<svg xmlns="http://www.w3.org/2000/svg" width="82" height="82" viewBox="0 0 82 82">
  <g id="组_58720" data-name="组 58720" transform="translate(-632 -43)">
    <g id="组_58710" data-name="组 58710" transform="translate(-15 -7)">
      <g id="椭圆_3654" data-name="椭圆 3654" transform="translate(647 50)" fill="none" stroke="#fff" stroke-width="2">
        <circle cx="41" cy="41" r="41" stroke="none"/>
        <circle cx="41" cy="41" r="40" fill="none"/>
      </g>
      <path id="路径_97228" data-name="路径 97228" d="M66.556,57.617A1.048,1.048,0,0,1,67.6,56.568H81.264a1.049,1.049,0,1,1,0,2.1H67.6a1.046,1.046,0,0,1-1.046-1.049ZM67.6,53.449H81.261a1.049,1.049,0,1,0,0-2.1H67.6a1.049,1.049,0,1,0,0,2.1Zm0,10.432h3.967a1.049,1.049,0,0,0,0-2.092H67.6a1.046,1.046,0,1,0,0,2.092ZM89.725,76.9A12.186,12.186,0,1,1,77.542,64.713,12.186,12.186,0,0,1,89.725,76.9Zm-3.817-4.181-2.092-2.092-8.362,8.362L71.269,74.81,69.18,76.9l6.273,6.273ZM61.944,53.507a5.466,5.466,0,1,0-5.466,5.466A5.466,5.466,0,0,0,61.944,53.507ZM48.786,65.1v3.24H64.224V65.1a4.58,4.58,0,0,0-4.58-4.58H53.365A4.58,4.58,0,0,0,48.786,65.1ZM85.879,42.048H46.534a3.846,3.846,0,0,0-3.846,3.846V71.286a3.846,3.846,0,0,0,3.846,3.846H63.647a13.813,13.813,0,0,1,1.11-3.955H46.639V46H85.777l0,19.556a14.1,14.1,0,0,1,3.948,4.411V45.894A3.846,3.846,0,0,0,85.879,42.048Zm0,0" transform="translate(621.794 25.434)" fill="#fff"/>
    </g>
  </g>
</svg>
