<svg xmlns="http://www.w3.org/2000/svg" width="66.404" height="59.959" viewBox="0 0 66.404 59.959">
  <g id="组_58489" data-name="组 58489" transform="translate(-62 -62)">
    <path id="路径_97105" data-name="路径 97105" d="M343.317,271.9H332.689a2.791,2.791,0,0,1-2.656-2.9v-5.807a2.791,2.791,0,0,1,2.656-2.9h6.643a1.457,1.457,0,0,1,0,2.9h-6.643V269h10.628a1.457,1.457,0,0,1,0,2.9Zm0,0-35.733-9.609h-9.744a1.88,1.88,0,0,1-1.949-1.8V246.067a1.955,1.955,0,0,1,3.9,0v12.619h7.795a1.808,1.808,0,1,1,0,3.605Zm0,0" transform="translate(-218.31 -170.122)" fill="#4e71bd"/>
    <path id="路径_97106" data-name="路径 97106" d="M69.623,115.629c-4.2,0-7.623-4.212-7.623-9.389V71.389C62,66.213,65.42,62,69.623,62H96.775c4.2,0,7.622,4.212,7.622,9.389v38.081a2.075,2.075,0,1,1-4.135,0V71.389c0-2.687-1.565-4.873-3.488-4.873H69.623c-1.923,0-3.488,2.186-3.488,4.873V106.24c0,2.687,1.565,4.873,3.488,4.873a2.267,2.267,0,0,1,0,4.516Z" fill="#4e71bd"/>
    <path id="路径_97107" data-name="路径 97107" d="M360.475,805.237H340.247a2.149,2.149,0,0,1,0-4.281h20.228a2.149,2.149,0,0,1,0,4.281Z" transform="translate(-257.882 -689.726)" fill="#4e71bd"/>
    <path id="路径_97108" data-name="路径 97108" d="M156.891,721.33c-4.336,0-7.863-3.853-7.863-8.588s3.527-8.59,7.863-8.59,7.863,3.853,7.863,8.59S161.227,721.33,156.891,721.33Zm0-12.663a4.091,4.091,0,1,0,3.728,4.075A3.918,3.918,0,0,0,156.891,708.667Zm35.044,12.663c-4.336,0-7.863-3.853-7.863-8.588s3.527-8.59,7.863-8.59,7.864,3.853,7.864,8.59S196.271,721.33,191.935,721.33Zm0-12.663a4.091,4.091,0,1,0,3.73,4.075A3.918,3.918,0,0,0,191.935,708.667Z" transform="translate(-81.23 -599.37)" fill="#4e71bd"/>
    <path id="路径_97109" data-name="路径 97109" d="M676.758,419.331a2.266,2.266,0,0,1,0-4.514,11.962,11.962,0,0,0,6.812-1.766V402c0-4.149-4.658-8.409-6.975-10.1H663.288a2.267,2.267,0,0,1,0-4.516h14.5l.5.335c.385.259,9.419,6.42,9.419,14.284v13.115l-.607.655C686.762,416.133,683.632,419.331,676.758,419.331Z" transform="translate(-559.3 -303.703)" fill="#4e71bd"/>
  </g>
</svg>
