<svg xmlns="http://www.w3.org/2000/svg" width="108" height="108" viewBox="0 0 108 108">
  <g id="组_58712" data-name="组 58712" transform="translate(-321 -615)">
    <g id="椭圆_3638" data-name="椭圆 3638" transform="translate(321 615)" fill="none" stroke="#5a9bed" stroke-width="3">
      <circle cx="54" cy="54" r="54" stroke="none"/>
      <circle cx="54" cy="54" r="52.5" fill="none"/>
    </g>
    <g id="组_58670" data-name="组 58670" transform="translate(335.49 562.919)">
      <path id="路径_97202" data-name="路径 97202" d="M54.264,91.608l-3.051-9.4a2.356,2.356,0,0,0-2.951-1.5L13.5,91.958Zm4.351,27.808v2.351a1.529,1.529,0,0,1-2.451,1.2l-11.5-9.053a1.509,1.509,0,0,1,0-2.351l11.554-9.053a1.529,1.529,0,0,1,2.451,1.2v2.351H71.019V96.41a2.508,2.508,0,0,0-2.5-2.5H10.5A2.508,2.508,0,0,0,8,96.41v32.66a2.508,2.508,0,0,0,2.5,2.5H68.518a2.508,2.508,0,0,0,2.5-2.5v-9.653Z" transform="translate(0 0)" fill="#419df4"/>
      <path id="路径_97203" data-name="路径 97203" d="M664.144,495.733H651.39v-1.4a.883.883,0,0,0-1.45-.7l-7,5.4a.948.948,0,0,0,0,1.45l7,5.452a.9.9,0,0,0,1.45-.7v-1.4h12.754a.9.9,0,0,0,.9-.9v-6.3A.866.866,0,0,0,664.144,495.733Z" transform="translate(-594.925 -387.019)" fill="#419df4"/>
    </g>
  </g>
</svg>
