<svg width="30" height="30" viewBox="0 0 30 30" fill="none" xmlns="http://www.w3.org/2000/svg">
<path d="M24.3721 19.998V5.31152C24.3721 4.79297 23.9531 4.37402 23.4346 4.37402H6.5625C6.04395 4.37402 5.625 4.79297 5.625 5.31152V24.6826C5.625 25.2012 6.04395 25.6201 6.5625 25.6201H18.7471V21.8701C18.7471 20.8359 19.585 19.9951 20.6221 19.9951H24.3721V19.998ZM23.0449 21.8701H20.6221V24.293L23.0449 21.8701ZM6.5625 2.49902H23.4346C24.9873 2.49902 26.2471 3.75879 26.2471 5.31152V20.5459C26.2471 21.0439 26.0508 21.5186 25.6992 21.8701L20.6221 26.9473C20.2705 27.2988 19.793 27.4951 19.2979 27.4951H6.5625C5.00977 27.4951 3.75 26.2354 3.75 24.6826V5.31152C3.75 3.75879 5.00977 2.49902 6.5625 2.49902ZM11.874 13.002L10.9277 13.8281L9.69434 12.416L13.749 8.86816V19.3711H11.874V13.002ZM18.4424 15.2402L19.3887 14.4141L20.6221 15.8262L16.5674 19.3711V8.87109H18.4424V15.2402Z" fill="#A6B1C2"/>
</svg>
