<svg xmlns="http://www.w3.org/2000/svg" width="38.073" height="38.073" viewBox="0 0 38.073 38.073">
  <g id="组_58160" data-name="组 58160" transform="translate(-65.29 -65.29)">
    <path id="路径_96860" data-name="路径 96860" d="M310.584,281.037l-7.767,7.767-7.767-7.767a.9.9,0,0,0-1.279,1.279l6.863,6.863H296a.9.9,0,1,0,0,1.809h5.924v3.8H296.5a.9.9,0,1,0,0,1.809h5.426V302.2a.9.9,0,0,0,1.809,0v-5.607h5.426a.9.9,0,1,0,0-1.809h-5.426v-3.8h5.924a.9.9,0,1,0,0-1.809H305l6.863-6.863a.9.9,0,0,0-1.279-1.279Z" transform="translate(-218.49 -206.3)" fill="#828282"/>
    <path id="路径_96861" data-name="路径 96861" d="M84.327,65.29a19.037,19.037,0,1,0,19.037,19.037A19.058,19.058,0,0,0,84.327,65.29Zm0,36.265a17.228,17.228,0,1,1,17.228-17.228A17.247,17.247,0,0,1,84.327,101.555Z" fill="#828282"/>
  </g>
</svg>
