<svg xmlns="http://www.w3.org/2000/svg" width="108" height="108" viewBox="0 0 108 108">
  <g id="组_58718" data-name="组 58718" transform="translate(-321 -1029)">
    <g id="椭圆_3644" data-name="椭圆 3644" transform="translate(321 1029)" fill="none" stroke="#5a9bed" stroke-width="3">
      <circle cx="54" cy="54" r="54" stroke="none"/>
      <circle cx="54" cy="54" r="52.5" fill="none"/>
    </g>
    <path id="路径_97212" data-name="路径 97212" d="M126.723,12.925q0-.862,1.392-1.094t3.513-.464a42.642,42.642,0,0,0,4.64-.8,13.239,13.239,0,0,0,4.772-2.154,25.535,25.535,0,0,0,2.95-2.287q1.359-1.226,2.618-2.353t2.486-2.055A10.543,10.543,0,0,1,151.712.265V24.923H126.988q-.133-2.718-.2-5.667T126.723,12.925ZM149.06,64.959q-3.646-2.784-6.562-5.236a59.187,59.187,0,0,1-5.2-4.905,36.383,36.383,0,0,1-3.977-5.071,33.384,33.384,0,0,1-2.917-5.667,39.935,39.935,0,0,1-1.989-6.662,68.792,68.792,0,0,1-1.16-8.186h24.459V66.086a12.848,12.848,0,0,1-1.392-.464,6.853,6.853,0,0,1-1.259-.663Zm6.827-35.727h24.326a68.078,68.078,0,0,1-1.027,8.12,41.908,41.908,0,0,1-1.79,6.5,28.049,28.049,0,0,1-2.718,5.468,40.4,40.4,0,0,1-3.844,5q-2.221,2.486-5.137,5.17t-6.562,5.932a8.723,8.723,0,0,1-3.248.994V29.231ZM167.62,9.412a9.962,9.962,0,0,0,4.11,1.723,39.679,39.679,0,0,0,4.242.53q1.989.133,3.347.232t1.359.762q0,6.894-.2,12.263H155.888V0A8.445,8.445,0,0,1,159,1.491a26.327,26.327,0,0,1,2.817,2.453q1.359,1.359,2.751,2.817A21.871,21.871,0,0,0,167.62,9.412Z" transform="translate(221.3 1049.792)" fill="#419df4"/>
  </g>
</svg>
