<svg width="30" height="30" viewBox="0 0 30 30" fill="none" xmlns="http://www.w3.org/2000/svg">
<path d="M8.70117 15.1904C8.60449 15.1904 8.50781 15.1787 8.41113 15.1582C4.52051 14.2764 2.00684 11.9355 2.00684 9.19336C2.00684 5.65137 6.22559 2.87988 11.6133 2.87988C15.5947 2.87988 19.0957 4.4209 20.5342 6.80859C20.9062 7.42383 20.707 8.22363 20.0918 8.5957C19.4736 8.96777 18.6768 8.76855 18.3047 8.15332C17.3584 6.58301 14.6045 5.48437 11.6133 5.48437C7.48535 5.48437 4.61133 7.44141 4.61133 9.19629C4.61133 10.6289 6.41016 12.0381 8.98535 12.6211C9.68555 12.7793 10.125 13.4766 9.9668 14.1797C9.83496 14.7803 9.2959 15.1904 8.70117 15.1904Z" fill="#F7E9C8"/>
<path d="M8.7041 21.0732C8.60742 21.0732 8.51074 21.0615 8.41406 21.041C4.52344 20.1592 2.00977 17.8184 2.00977 15.0762V9.19336C2.00977 8.47559 2.59277 7.89258 3.31055 7.89258C4.02832 7.89258 4.61133 8.47559 4.61133 9.19336V15.0762C4.61133 16.5088 6.41016 17.918 8.98535 18.501C9.68555 18.6592 10.125 19.3564 9.9668 20.0596C9.83496 20.6631 9.2959 21.0732 8.7041 21.0732Z" fill="#F7E9C8"/>
<path d="M9.5625 27.1172C9.49805 27.1172 9.43066 27.1113 9.36328 27.1025C5.0332 26.4375 2.00977 23.9092 2.00977 20.959V15.0762C2.00977 14.3584 2.59277 13.7754 3.31055 13.7754C4.02832 13.7754 4.61133 14.3584 4.61133 15.0762V20.959C4.61133 22.5439 6.82324 24.0791 9.75586 24.5303C10.4678 24.6387 10.9541 25.3037 10.8457 26.0156C10.749 26.6572 10.1953 27.1172 9.5625 27.1172ZM19.5527 21.9551C14.7891 21.9551 11.0566 19.3916 11.0566 16.1221C11.0566 12.8496 14.7891 10.2891 19.5527 10.2891C24.3164 10.2891 28.0488 12.8525 28.0488 16.1221C28.0488 19.3916 24.3164 21.9551 19.5527 21.9551ZM19.5527 12.8906C16.0811 12.8906 13.6611 14.5928 13.6611 16.1221C13.6611 17.6484 16.0811 19.3506 19.5527 19.3506C23.0244 19.3506 25.4443 17.6484 25.4443 16.1221C25.4443 14.5928 23.0244 12.8906 19.5527 12.8906Z" fill="#F7E9C8"/>
<path d="M19.5527 27.2725C14.7891 27.2725 11.0566 24.709 11.0566 21.4395V16.1221C11.0566 15.4043 11.6396 14.8213 12.3574 14.8213C13.0752 14.8213 13.6582 15.4043 13.6582 16.1221V21.4395C13.6582 22.9658 16.0781 24.668 19.5498 24.668C23.0215 24.668 25.4414 22.9658 25.4414 21.4395V16.1221C25.4414 15.4043 26.0244 14.8213 26.7422 14.8213C27.46 14.8213 28.043 15.4043 28.043 16.1221V21.4395C28.0488 24.709 24.3164 27.2725 19.5527 27.2725Z" fill="#F7E9C8"/>
</svg>
