<svg xmlns="http://www.w3.org/2000/svg" width="49" height="49" viewBox="0 0 49 49">
  <g id="在线客服" transform="translate(57 -4145)">
    <g id="组_31" data-name="组 31" transform="translate(-172.887 4029.113)">
      <path id="路径_97084" data-name="路径 97084" d="M258.581,135.226h.516a5.161,5.161,0,1,0,10.323,0h.516v1.032h.542a6,6,0,0,1-5.084,5.161,1.273,1.273,0,1,0,.258,1.006,7.065,7.065,0,0,0,5.858-6.168h1.006v-4.129h-1.729a7.227,7.227,0,0,0-13.058,0H256v4.129h2.581Z" transform="translate(-123.871)" fill="#0f2474"/>
      <path id="路径_97085" data-name="路径 97085" d="M143.742,586.4a4.072,4.072,0,0,1-3.355,1.729,4.14,4.14,0,0,1-3.355-1.729c-4.129.723-9.032,2.684-9.032,5.858v3.1a1.035,1.035,0,0,0,1.032,1.032h22.71a1.035,1.035,0,0,0,1.032-1.032v-3.123C152.8,589.058,147.9,587.123,143.742,586.4Z" transform="translate(0 -443.613)" fill="#0f2474"/>
    </g>
    <g id="组_58476" data-name="组 58476" transform="translate(-57 4145)">
      <g id="椭圆_3627" data-name="椭圆 3627" fill="none" stroke="#14236f" stroke-width="1">
        <circle cx="24.5" cy="24.5" r="24.5" stroke="none"/>
        <circle cx="24.5" cy="24.5" r="24" fill="none"/>
      </g>
    </g>
  </g>
</svg>
