<svg xmlns="http://www.w3.org/2000/svg" width="40.848" height="38.515" viewBox="0 0 40.848 38.515">
  <path id="路径_97090" data-name="路径 97090" d="M104.07,104.771a1.092,1.092,0,0,0-.032-.191v-.036l-.018-.1a2.873,2.873,0,0,0-2.666-2.593h-.214a4.016,4.016,0,0,1-4.01-4.01,5.016,5.016,0,0,1,.337-1.49,3.151,3.151,0,0,0-1.595-3.992l-4.89-2.766-.091-.032a4.025,4.025,0,0,0-1.262-.26,3.733,3.733,0,0,0-2.493,1.025c-.77.761-2.333,1.9-3.263,1.9s-2.493-1.13-3.263-1.9A3.579,3.579,0,0,0,78.118,89.3a3.825,3.825,0,0,0-1.262.26l-.082.032-5.126,2.775-.032.018A3.251,3.251,0,0,0,70.5,96.368l.009.018.009.018a4.58,4.58,0,0,1,.41,1.64,4.016,4.016,0,0,1-4.01,4.01H66.7a2.794,2.794,0,0,0-2.666,2.611l-.018.091v.032a1.641,1.641,0,0,1-.032.191,24.282,24.282,0,0,0-.387,3.636,23.691,23.691,0,0,0,.387,3.636,1.092,1.092,0,0,0,.032.191v.036l.018.1a2.873,2.873,0,0,0,2.666,2.593h.109a4.016,4.016,0,0,1,4.01,4.01,5.016,5.016,0,0,1-.337,1.49,3.386,3.386,0,0,0,1.308,4.046l.036.018,4.83,2.689.091.032a3.967,3.967,0,0,0,1.253.26,3.33,3.33,0,0,0,2.493-1.025c.055-.041.109-.1.173-.15.583-.51,2.151-1.859,3.185-1.859.77,0,2.06.807,3.358,2.105a3.579,3.579,0,0,0,2.493,1.025,3.446,3.446,0,0,0,1.622-.433l.018-.009,4.953-2.739.018-.018a3.251,3.251,0,0,0,1.116-3.983l-.009-.018-.009-.018a3.255,3.255,0,0,1-.324-1.536l.009-.046v-.046a4.016,4.016,0,0,1,4.01-4.01h.228a2.794,2.794,0,0,0,2.666-2.611l.018-.091v-.032c.009-.036.018-.091.032-.164a22.287,22.287,0,0,0,.392-3.664A22.686,22.686,0,0,0,104.07,104.771Zm-20.05,10.134a6.343,6.343,0,1,1,6.343-6.343A6.342,6.342,0,0,1,84.019,114.905Z" transform="translate(-63.6 -89.3)" fill="#4372c3"/>
</svg>
