<svg xmlns="http://www.w3.org/2000/svg" width="49" height="49" viewBox="0 0 49 49">
  <g id="设置" transform="translate(-36 -1367)">
    <g id="组_58387" data-name="组 58387" transform="translate(36 1367)">
      <g id="组_58385" data-name="组 58385">
        <g id="椭圆_3621" data-name="椭圆 3621" fill="none" stroke="#0f2474" stroke-width="1">
          <circle cx="24.5" cy="24.5" r="24.5" stroke="none"/>
          <circle cx="24.5" cy="24.5" r="24" fill="none"/>
        </g>
      </g>
    </g>
    <path id="路径_97086" data-name="路径 97086" d="M90.79,99.694a.734.734,0,0,0-.021-.129v-.024l-.012-.067a1.931,1.931,0,0,0-1.791-1.742h-.144a2.7,2.7,0,0,1-2.694-2.694,3.37,3.37,0,0,1,.227-1,2.117,2.117,0,0,0-1.072-2.682L82,89.5l-.061-.021a2.7,2.7,0,0,0-.848-.175,2.508,2.508,0,0,0-1.675.689,4.4,4.4,0,0,1-2.192,1.274,4.394,4.394,0,0,1-2.192-1.274,2.4,2.4,0,0,0-1.675-.689,2.57,2.57,0,0,0-.848.175l-.055.021L69.007,91.36l-.021.012a2.184,2.184,0,0,0-.75,2.676l.006.012.006.012a3.077,3.077,0,0,1,.276,1.1,2.7,2.7,0,0,1-2.694,2.694h-.144a1.878,1.878,0,0,0-1.791,1.754l-.012.061v.021a1.1,1.1,0,0,1-.021.129,16.315,16.315,0,0,0-.26,2.443,15.918,15.918,0,0,0,.26,2.443.734.734,0,0,0,.021.129v.024l.012.067a1.931,1.931,0,0,0,1.791,1.742h.073a2.7,2.7,0,0,1,2.694,2.694,3.37,3.37,0,0,1-.227,1A2.275,2.275,0,0,0,69.1,113.1l.024.012,3.245,1.806.061.021a2.665,2.665,0,0,0,.842.175,2.237,2.237,0,0,0,1.675-.689c.037-.028.073-.064.116-.1.392-.343,1.445-1.249,2.14-1.249a4.207,4.207,0,0,1,2.256,1.414,2.4,2.4,0,0,0,1.675.689,2.315,2.315,0,0,0,1.09-.291l.012-.006,3.328-1.84.012-.012a2.184,2.184,0,0,0,.75-2.676l-.006-.012-.006-.012A2.187,2.187,0,0,1,86.1,109.3l.006-.031v-.031A2.7,2.7,0,0,1,88.8,106.54h.153a1.878,1.878,0,0,0,1.791-1.754l.012-.061V104.7c.006-.024.012-.061.021-.11a14.974,14.974,0,0,0,.263-2.462A15.243,15.243,0,0,0,90.79,99.694ZM77.319,106.5a4.262,4.262,0,1,1,4.262-4.262A4.261,4.261,0,0,1,77.319,106.5Z" transform="translate(-16.822 1289.262)" fill="#0f2474"/>
  </g>
</svg>
