<svg xmlns="http://www.w3.org/2000/svg" width="49" height="49" viewBox="0 0 49 49">
  <g id="邀请好友" transform="translate(-4577 -8880)">
    <g id="组_58526" data-name="组 58526" transform="translate(4587.109 8891.759)">
      <path id="路径_97141" data-name="路径 97141" d="M27.8,359.251a1.906,1.906,0,0,0-1.946.07L16.087,365.6a3.142,3.142,0,0,1-3.393,0l-9.762-6.281a1.906,1.906,0,0,0-1.947-.07A1.885,1.885,0,0,0,0,360.905v11.785a2.892,2.892,0,0,0,2.9,2.875H25.881a2.891,2.891,0,0,0,2.9-2.875V360.905a1.885,1.885,0,0,0-.985-1.654Z" transform="translate(0 -350.083)" fill="#0f2474"/>
      <path id="路径_97142" data-name="路径 97142" d="M166.778,9.455l7.417,4.742a3.186,3.186,0,0,0,3.42,0l7.416-4.742a2.462,2.462,0,0,0,1.141-2.084V2.65A2.664,2.664,0,0,0,183.5,0H168.311a2.666,2.666,0,0,0-2.674,2.65V7.371a2.462,2.462,0,0,0,1.141,2.083Zm6.76-1.823h1.691V5.968a.674.674,0,1,1,1.349,0V7.632h1.692a.674.674,0,1,1,0,1.349h-1.692v1.664a.674.674,0,0,1-1.349,0V8.981h-1.691a.674.674,0,1,1,0-1.349Z" transform="translate(-161.515)" fill="#0f2474"/>
    </g>
    <g id="组_58527" data-name="组 58527" transform="translate(4634 4735)">
      <g id="组_58476" data-name="组 58476" transform="translate(-57 4145)">
        <g id="椭圆_3627" data-name="椭圆 3627" fill="none" stroke="#0f2474" stroke-width="1">
          <circle cx="24.5" cy="24.5" r="24.5" stroke="none"/>
          <circle cx="24.5" cy="24.5" r="24" fill="none"/>
        </g>
      </g>
    </g>
  </g>
</svg>
