<svg width="30" height="30" viewBox="0 0 30 30" fill="none" xmlns="http://www.w3.org/2000/svg">
<path d="M19.9043 4.95117C20.874 4.95117 21.6621 5.73926 21.6621 6.70898C21.6621 7.67871 20.874 8.4668 19.9043 8.4668C19.6201 8.4668 19.3477 8.40234 19.0986 8.27051L18.6533 8.03906L18.3955 7.6084C18.2344 7.33887 18.1465 7.02539 18.1465 6.70605C18.1465 5.73926 18.9346 4.95117 19.9043 4.95117ZM7.88086 13.2129C8.6543 13.2129 9.38086 13.5117 9.93457 14.0537L10.377 14.4873L10.6055 15.0586C10.7432 15.4014 10.8135 15.7676 10.8135 16.1426C10.8135 16.3037 10.7988 16.4678 10.7725 16.6289L10.6729 17.2354L10.333 17.751C9.78516 18.5771 8.87109 19.0723 7.88086 19.0723C6.2666 19.0723 4.95117 17.7568 4.95117 16.1426C4.95117 14.5283 6.2666 13.2129 7.88086 13.2129ZM23.291 21.5332C24.2607 21.5332 25.0488 22.3213 25.0488 23.291C25.0488 24.2607 24.2607 25.0488 23.291 25.0488C22.3213 25.0488 21.5332 24.2607 21.5332 23.291C21.5332 23.2559 21.5332 23.2148 21.5361 23.1738L21.5684 22.6816L21.8525 22.2803C22.1836 21.8115 22.7227 21.5332 23.291 21.5332ZM19.9043 2.90039C17.8008 2.90039 16.0957 4.60547 16.0957 6.70898C16.0957 7.42383 16.292 8.09473 16.6377 8.66602L11.3701 12.5889C10.4707 11.707 9.24023 11.1621 7.88086 11.1621C5.12988 11.1621 2.90039 13.3916 2.90039 16.1426C2.90039 18.8936 5.12988 21.123 7.88086 21.123C9.62109 21.123 11.1562 20.2295 12.0439 18.876L19.4912 23.0391C19.4854 23.1211 19.4824 23.2061 19.4824 23.291C19.4824 25.3945 21.1875 27.0996 23.291 27.0996C25.3945 27.0996 27.0996 25.3945 27.0996 23.291C27.0996 21.1875 25.3945 19.4824 23.291 19.4824C22.0049 19.4824 20.8682 20.1182 20.1797 21.0938L12.7939 16.9629C12.8379 16.6963 12.8613 16.4209 12.8613 16.1426C12.8613 15.4922 12.7354 14.8682 12.5098 14.2998L18.1553 10.0928C18.6797 10.3652 19.2744 10.5176 19.9043 10.5176C22.0078 10.5176 23.7129 8.8125 23.7129 6.70898C23.7129 4.60547 22.0078 2.90039 19.9043 2.90039Z" fill="#A6B1C2"/>
</svg>
