<svg xmlns="http://www.w3.org/2000/svg" width="108" height="108" viewBox="0 0 108 108">
  <g id="组_58716" data-name="组 58716" transform="translate(-72 -822)">
    <g id="椭圆_3640" data-name="椭圆 3640" transform="translate(72 822)" fill="none" stroke="#5a9bed" stroke-width="3">
      <circle cx="54" cy="54" r="54" stroke="none"/>
      <circle cx="54" cy="54" r="52.5" fill="none"/>
    </g>
    <path id="路径_97206" data-name="路径 97206" d="M70.233,139.443c0,3.51-1.4,4.212-6.787,4.212-1.4-13.573-8.191-20.126-15.212-23.4A19.756,19.756,0,0,0,48.7,98.021c5.383-1.638,11,2.106,12.4,7.957,1.17,5.149-1.17,10.765-5.851,12.871C64.149,121.189,70.233,129.614,70.233,139.443Zm-28.785-18.02c8.659,1.872,18.722,7.957,18.722,25.509,0,4.68-5.851,4.68-24.806,4.68-19.19,0-24.806,0-24.806-4.68,0-17.318,10.063-23.636,18.722-25.509-6.787-3.744-9.127-12.4-5.85-19.424a12.548,12.548,0,0,1,17.786-5.851,14.8,14.8,0,0,1,5.383,19.19,13.339,13.339,0,0,1-5.148,6.085Zm-19.424-1.17C15,123.53,8.217,130.316,6.813,143.656c-5.382,0-6.787-.7-6.787-4.212-.468-9.829,5.851-18.488,14.743-20.594A11.3,11.3,0,0,1,9.621,104.34c2.106-4.914,7.021-7.489,11.935-6.085A19.4,19.4,0,0,0,22.024,120.253Z" transform="translate(90.883 752.978)" fill="#419df4"/>
  </g>
</svg>
