<svg xmlns="http://www.w3.org/2000/svg" xmlns:xlink="http://www.w3.org/1999/xlink" width="127" height="127" viewBox="0 0 127 127">
  <defs>
    <linearGradient id="linear-gradient" x1="0.864" y1="0.051" x2="0.09" y2="0.956" gradientUnits="objectBoundingBox">
      <stop offset="0" stop-color="#ffd4a2"/>
      <stop offset="0.872" stop-color="#ee8d1c"/>
      <stop offset="1" stop-color="#ffe0bc"/>
    </linearGradient>
  </defs>
  <g id="组_58686" data-name="组 58686" transform="translate(-63 -804)">
    <rect id="矩形_22648" data-name="矩形 22648" width="127" height="127" rx="33" transform="translate(63 804)" fill="url(#linear-gradient)"/>
    <path id="路径_97206" data-name="路径 97206" d="M91,152.753c0,4.548-1.819,5.458-8.794,5.458C80.389,140.624,71.6,132.134,62.5,127.889A25.6,25.6,0,0,0,63.1,99.082c6.974-2.123,14.252,2.729,16.071,10.31,1.516,6.671-1.516,13.948-7.581,16.678C83.118,129.1,91,140.018,91,152.753ZM53.7,129.4c11.219,2.426,24.258,10.31,24.258,33.052,0,6.065-7.581,6.065-32.142,6.065-24.865,0-32.142,0-32.142-6.065,0-22.439,13.039-30.626,24.258-33.052-8.794-4.852-11.826-16.071-7.581-25.168S45.214,91.8,53.4,96.656a19.178,19.178,0,0,1,6.974,24.865A17.284,17.284,0,0,1,53.7,129.4Zm-25.168-1.516c-9.1,4.245-17.89,13.039-19.71,30.323-6.974,0-8.794-.91-8.794-5.458-.606-12.736,7.581-23.955,19.1-26.684a14.637,14.637,0,0,1-6.671-18.8c2.729-6.368,9.1-9.7,15.465-7.884A25.132,25.132,0,0,0,28.537,127.889Z" transform="translate(80.998 736.022)" fill="#fff"/>
  </g>
</svg>
