<svg width="30" height="30" viewBox="0 0 30 30" fill="none" xmlns="http://www.w3.org/2000/svg">
<path d="M17.8125 12.1875H26.25C27.2859 12.1875 28.125 13.0219 28.125 14.0625V26.25C28.125 27.2859 27.2906 28.125 26.25 28.125H14.0625C13.0266 28.125 12.1875 27.2906 12.1875 26.25V17.8125H3.75C2.71406 17.8125 1.875 16.9781 1.875 15.9375V3.75C1.875 2.71406 2.70937 1.875 3.75 1.875H15.9375C16.9734 1.875 17.8125 2.70937 17.8125 3.75V12.1875ZM17.8125 14.0625V15.9375C17.8125 16.9734 16.9781 17.8125 15.9375 17.8125H14.0625V25.3134C14.0625 25.8309 14.4816 26.25 14.9991 26.25H25.3125C25.5609 26.25 25.7991 26.1513 25.9748 25.9757C26.1504 25.8 26.2491 25.5618 26.2491 25.3134V15C26.2491 14.7516 26.1504 14.5134 25.9748 14.3378C25.7991 14.1621 25.5609 14.0634 25.3125 14.0634H17.8125V14.0625ZM3.75 4.68656V15C3.75 15.5175 4.16906 15.9366 4.68656 15.9366H15C15.123 15.9366 15.2448 15.9123 15.3584 15.8653C15.472 15.8182 15.5753 15.7492 15.6622 15.6622C15.7492 15.5753 15.8182 15.472 15.8653 15.3584C15.9123 15.2448 15.9366 15.123 15.9366 15V4.6875C15.9367 4.56451 15.9126 4.4427 15.8656 4.32902C15.8187 4.21535 15.7498 4.11203 15.6629 4.02498C15.576 3.93792 15.4729 3.86883 15.3593 3.82165C15.2457 3.77447 15.1239 3.75012 15.0009 3.75H4.6875C4.56443 3.74988 4.44254 3.77401 4.3288 3.82102C4.21507 3.86803 4.11171 3.937 4.02464 4.02398C3.93758 4.11096 3.86851 4.21425 3.82138 4.32794C3.77426 4.44163 3.75 4.56349 3.75 4.68656ZM5.625 11.8434V7.12969H8.92781V5.15625H10.2975C10.485 5.18344 10.5797 5.20969 10.5797 5.23688C10.5748 5.27955 10.5611 5.32074 10.5394 5.35781C10.4587 5.5725 10.4184 5.8275 10.4184 6.12281V7.12969H13.9237V11.7225H12.4331V11.1178H10.4184V14.5828H8.96812V11.1178H6.99469V11.8434H5.625ZM6.99375 8.25844V10.0303H8.96812V8.25938H6.99469L6.99375 8.25844ZM12.4331 10.0303V8.25938H10.4184V10.0312H12.4331V10.0303ZM18.405 24.3272H16.875L19.5741 16.875H21.4678L24.0853 24.3281H22.4747L21.9103 22.7559H18.9694L18.4059 24.3272H18.405ZM19.3725 21.5072H21.5072L20.5003 18.3253H20.46L19.3725 21.5072ZM26.25 9.375H24.375C24.375 8.38044 23.9799 7.42661 23.2766 6.72335C22.5734 6.02009 21.6196 5.625 20.625 5.625V3.75C22.1168 3.75 23.5476 4.34263 24.6025 5.39752C25.6574 6.45242 26.25 7.88316 26.25 9.375ZM3.75 20.625H5.625C5.625 21.6196 6.02009 22.5734 6.72335 23.2766C7.42661 23.9799 8.38044 24.375 9.375 24.375V26.25C7.88316 26.25 6.45242 25.6574 5.39752 24.6025C4.34263 23.5476 3.75 22.1168 3.75 20.625Z" fill="#5965F1"/>
</svg>
