<svg xmlns="http://www.w3.org/2000/svg" width="108" height="108" viewBox="0 0 108 108">
  <g id="组_58742" data-name="组 58742" transform="translate(-321 -822)">
    <g id="组_58714" data-name="组 58714" transform="translate(-250)">
      <g id="椭圆_3642" data-name="椭圆 3642" transform="translate(571 822)" fill="none" stroke="#5a9bed" stroke-width="3">
        <circle cx="54" cy="54" r="54" stroke="none"/>
        <circle cx="54" cy="54" r="52.5" fill="none"/>
      </g>
    </g>
    <path id="路径_97248" data-name="路径 97248" d="M30.969,61.937A30.969,30.969,0,1,1,61.937,30.969,30.97,30.97,0,0,1,30.969,61.937ZM29,42.143a2.517,2.517,0,0,0-.07-3.251H40.855a2.465,2.465,0,0,0,0-4.927H22.377a2.474,2.474,0,0,0-1.538,4.352l4.789,4.132A2.348,2.348,0,0,0,29,42.143Zm5.223-19.285A2.517,2.517,0,0,0,34.3,26.11H22.375a2.464,2.464,0,0,0,0,4.927H40.851a2.475,2.475,0,0,0,1.538-4.352L37.6,22.553a2.348,2.348,0,0,0-3.373.306Z" transform="translate(344.031 845.031)" fill="#419df4"/>
  </g>
</svg>
