<svg width="30" height="30" viewBox="0 0 30 30" fill="none" xmlns="http://www.w3.org/2000/svg">
<path fill-rule="evenodd" clip-rule="evenodd" d="M1.58149 27.8779C1.58149 28.1778 1.83179 28.421 2.14057 28.421L27.8575 28.421C28.1663 28.421 28.4166 28.1779 28.4166 27.878V27.2294C28.4294 27.034 28.4556 26.0586 27.8126 24.9802C27.4072 24.3003 26.8188 23.7128 26.0637 23.2344C25.1502 22.6555 23.9881 22.236 22.5826 21.9835C22.5722 21.9822 21.53 21.844 20.4624 21.5713C18.6031 21.0964 18.4406 20.6762 18.4395 20.6721C18.4286 20.6305 18.4127 20.5906 18.3925 20.5531C18.3773 20.4747 18.3397 20.1796 18.4115 19.3891C18.5939 17.3811 19.671 16.1944 20.5365 15.241C20.8094 14.9403 21.0671 14.6563 21.2657 14.3777C22.122 13.1762 22.2015 11.8099 22.2051 11.7252C22.2051 11.5537 22.1854 11.4126 22.1432 11.2818C22.0592 11.0202 21.901 10.8572 21.7855 10.7382L21.7847 10.7373C21.7556 10.7074 21.7282 10.679 21.7057 10.6529C21.6972 10.6429 21.6744 10.6166 21.6951 10.4813C21.7711 9.98339 21.8167 9.56649 21.8386 9.1693C21.8776 8.46166 21.9081 7.40337 21.7256 6.37341C21.703 6.19753 21.6643 6.01175 21.6041 5.79044C21.4112 5.08121 21.1014 4.47483 20.6709 3.97439C20.5969 3.89385 18.7971 1.99765 13.5722 1.60859C12.8497 1.5548 12.1355 1.58378 11.4325 1.61971C11.263 1.62809 11.031 1.63959 10.8138 1.69585C10.2744 1.83559 10.1304 2.17752 10.0926 2.36888C10.03 2.68586 10.1401 2.93243 10.2129 3.09562V3.09564V3.09566C10.2235 3.11932 10.2366 3.14857 10.2138 3.22474C10.0925 3.41257 9.90168 3.58191 9.70714 3.74234C9.65092 3.79013 8.34074 4.91983 8.26869 6.39559C8.07444 7.51795 8.08913 9.26664 8.31884 10.4752C8.33219 10.542 8.3519 10.6408 8.3199 10.7076V10.7076C8.07288 10.9289 7.79288 11.1798 7.79358 11.7524C7.79655 11.8099 7.87602 13.1762 8.73242 14.3777C8.93077 14.656 9.18831 14.9399 9.46104 15.2403L9.46168 15.241V15.2411C10.3271 16.1945 11.4041 17.3811 11.5866 19.389C11.6584 20.1796 11.6208 20.4747 11.6056 20.553C11.5853 20.5905 11.5695 20.6305 11.5586 20.672C11.5575 20.6761 11.3956 21.095 9.54475 21.5689C8.477 21.8424 7.42585 21.9821 7.39448 21.9866C6.02857 22.2172 4.87364 22.6262 3.96181 23.202C3.20926 23.6773 2.61973 24.2658 2.20957 24.9511C1.55426 26.0461 1.57197 27.0434 1.58149 27.2254V27.8779Z" stroke="#A6B1C2" stroke-width="2" stroke-linejoin="round"/>
</svg>
