<svg xmlns="http://www.w3.org/2000/svg" width="58.763" height="59.933" viewBox="0 0 58.763 59.933">
  <path id="路径_97226" data-name="路径 97226" d="M102.292,63.825c-1.979.019-11.682-5.585-11.989-5.877-.737-.7-.459-1.577.294-1.7s4.975-.622,4.975-.622A22.7,22.7,0,0,0,79.585,41.357C67.455,38.49,54.91,46.622,52.137,59.033c-.024.106-.191,1.371-1.2,1.331a17.783,17.783,0,0,1-3.714-1.291c-.92-.431-1.168-.32-.889-1.708C49.492,41.587,65.651,30.954,81.16,34.592A29.9,29.9,0,0,1,103.954,61.5c.164,1.705-.7,2.311-1.661,2.32ZM82.035,67.283a2.307,2.307,0,1,1,0,4.614H77.422V74.78a2.884,2.884,0,1,1-5.767,0V71.9H67.041a2.307,2.307,0,0,1,0-4.614h4.614V64.976H67.041a2.307,2.307,0,0,1,0-4.614h4.614V60.2l-5.119-5.118A2.323,2.323,0,1,1,69.82,51.8L74.5,56.478l4.7-4.7a2.323,2.323,0,0,1,3.285,3.286l-5.06,5.06v.235h4.614a2.307,2.307,0,1,1,0,4.614H77.422v2.307h4.614ZM58.892,70.538c1.012.647.768,1.947-.344,2.062s-4.595.422-4.595.422a22.558,22.558,0,0,0,42.9-4c.057-.255.055-.215.154-.761s.26-1.378,1.328-1.008,3.673,1.136,4.484,1.353.72.537.618,1.291c-.031.229-.078.439-.127.66a29.406,29.406,0,0,1-35.3,22.481A29.893,29.893,0,0,1,45.22,66.17c-.136-2.183,1.407-2.629,2.984-1.795,1.24.656,9.677,5.516,10.689,6.163Z" transform="translate(-45.211 -33.876)" fill="#419df4"/>
</svg>
