<svg width="30" height="30" viewBox="0 0 30 30" fill="none" xmlns="http://www.w3.org/2000/svg">
<path d="M20.0155 16.6294V26.8582H22.165V23.1438C25.6006 23.1948 27.3424 23.0419 27.8251 20.1099C27.978 19.2525 27.6722 18.2902 27.2914 17.7626C26.1582 16.2276 22.7496 16.6084 20.0155 16.6294ZM22.165 21.405V18.4221C23.7599 18.3711 25.4477 18.1943 25.7265 19.4834C26.1852 21.6389 23.9578 21.456 22.165 21.405ZM15.8754 16.6803C15.8994 20.065 15.8994 23.4736 15.9264 26.8582H18.0249V16.6294C17.3174 16.6593 16.6069 16.6593 15.8754 16.6803ZM19.9436 2.99191C16.6309 6.2986 13.3272 9.5813 9.99055 12.894V2.99191H1.98315C2.00714 3.64845 2.00714 4.32898 2.03412 4.98852H3.97976V26.8432C11.9362 18.8808 19.8686 10.9483 27.8251 2.99191H19.9436Z" fill="#F4E3BA"/>
</svg>
