<svg width="30" height="30" viewBox="0 0 30 30" fill="none" xmlns="http://www.w3.org/2000/svg">
<path d="M20.0155 15.6372V25.866H22.165V22.1516C25.6006 22.2026 27.3424 22.0497 27.825 19.1177C27.9779 18.2603 27.6721 17.298 27.2914 16.7704C26.1582 15.2355 22.7496 15.6162 20.0155 15.6372ZM22.165 20.4128V17.4299C23.7599 17.379 25.4477 17.2021 25.7265 18.4912C26.1852 20.6467 23.9577 20.4638 22.165 20.4128ZM15.8754 15.6881C15.8994 19.0728 15.8994 22.4814 15.9264 25.866H18.0249V15.6372C17.3174 15.6672 16.6069 15.6672 15.8754 15.6881ZM19.9436 1.99973C16.6309 5.30641 13.3272 8.58911 9.99052 11.9018V1.99973H1.98312C2.00711 2.65627 2.00711 3.33679 2.03409 3.99633H3.97973V25.851C11.9362 17.8886 19.8686 9.95616 27.825 1.99973H19.9436Z" fill="#373754"/>
</svg>
