<svg width="40" height="40" viewBox="0 0 40 40" fill="none" xmlns="http://www.w3.org/2000/svg">
<path d="M40 0H10C4.47715 0 0 4.47715 0 10V40L19.7143 20.8571L40 0Z" fill="#F1D9A1"/>
<path d="M15.7726 13.5321V20.0103H17.1339V17.6579C19.3098 17.6902 20.4129 17.5933 20.7186 15.7364C20.8154 15.1934 20.6218 14.5839 20.3806 14.2498C19.6629 13.2777 17.5041 13.5188 15.7726 13.5321ZM17.1339 16.5567V14.6675C18.144 14.6352 19.2129 14.5232 19.3895 15.3396C19.68 16.7048 18.2693 16.5889 17.1339 16.5567ZM13.1505 13.5644C13.1657 15.708 13.1657 17.8667 13.1828 20.0103H14.5118V13.5321C14.0638 13.5511 13.6138 13.5511 13.1505 13.5644ZM15.727 4.89502C13.629 6.98925 11.5366 9.0683 9.4234 11.1663V4.89502H4.35205C4.36724 5.31083 4.36724 5.74183 4.38433 6.15953H5.61657V20.0008C10.6556 14.958 15.6795 9.93409 20.7186 4.89502H15.727Z" fill="#121423"/>
</svg>
