<svg xmlns="http://www.w3.org/2000/svg" width="71.386" height="58.148" viewBox="0 0 71.386 58.148">
  <g id="组_58696" data-name="组 58696" transform="translate(-13.2 -106.9)">
    <path id="路径_97222" data-name="路径 97222" d="M453.549,390.133c0-10.1-10.111-18.333-21.46-18.333-12.022,0-21.489,8.236-21.489,18.333,0,10.118,9.467,18.333,21.489,18.333a31.91,31.91,0,0,0,7.585-1.267l6.927,3.793-1.9-6.311C449.771,400.874,453.549,395.829,453.549,390.133Zm-28.108-2.805a2.862,2.862,0,1,1,2.862-2.862A2.862,2.862,0,0,1,425.441,387.328Zm13.9-.021a2.862,2.862,0,1,1,2.862-2.862A2.862,2.862,0,0,1,439.345,387.307Z" transform="translate(-368.963 -245.944)" fill="#00c800"/>
    <path id="路径_97223" data-name="路径 97223" d="M38.467,106.9c-13.889,0-25.267,9.467-25.267,21.489,0,6.941,3.785,12.637,10.111,17.059l-2.526,7.6,8.83-4.429a43.431,43.431,0,0,0,8.852,1.267c.794,0,1.581-.036,2.361-.1a18.8,18.8,0,0,1-.78-5.3c0-11.041,9.481-20,21.482-20a21.044,21.044,0,0,1,2.433.15C61.773,114.464,50.889,106.9,38.467,106.9ZM29.98,124.238a3.435,3.435,0,1,1,3.435-3.435,3.436,3.436,0,0,1-3.435,3.435Zm17.646,0a3.435,3.435,0,1,1,3.435-3.435A3.436,3.436,0,0,1,47.626,124.238Z" fill="#00c800"/>
  </g>
</svg>
