<svg width="40" height="40" viewBox="0 0 40 40" fill="none" xmlns="http://www.w3.org/2000/svg">
<path d="M16.6894 35.4834H9.58424C8.91298 35.4834 8.24829 35.3512 7.62812 35.0943C7.00796 34.8374 6.44446 34.4609 5.96981 33.9863C5.49515 33.5116 5.11863 32.9481 4.86175 32.3279C4.60487 31.7078 4.47266 31.0431 4.47266 30.3718V9.08571C4.47266 8.41444 4.60487 7.74976 4.86175 7.12959C5.11863 6.50942 5.49515 5.94593 5.96981 5.47127C6.44446 4.99662 7.00796 4.6201 7.62812 4.36322C8.24829 4.10634 8.91298 3.97412 9.58424 3.97412H26.9363C27.6075 3.97412 28.2722 4.10634 28.8924 4.36322C29.5125 4.6201 30.076 4.99662 30.5507 5.47127C31.0254 5.94593 31.4019 6.50942 31.6587 7.12959C31.9156 7.74976 32.0478 8.41444 32.0478 9.08571V15.9809C32.0479 16.1727 32.0101 16.3626 31.9367 16.5398C31.8634 16.7171 31.7558 16.8781 31.6202 17.0137C31.4846 17.1494 31.3235 17.257 31.1463 17.3304C30.9691 17.4038 30.7792 17.4416 30.5874 17.4416C30.3956 17.4416 30.2057 17.4038 30.0284 17.3304C29.8512 17.257 29.6902 17.1494 29.5546 17.0137C29.419 16.8781 29.3114 16.7171 29.238 16.5398C29.1647 16.3626 29.1269 16.1727 29.1269 15.9809V9.08571C29.1269 8.79802 29.0703 8.51316 28.9602 8.24737C28.8501 7.98159 28.6887 7.74009 28.4853 7.53666C28.2819 7.33324 28.0404 7.17188 27.7746 7.06178C27.5088 6.95169 27.2239 6.89503 26.9363 6.89503H9.58424C9.29656 6.89503 9.01169 6.95169 8.74591 7.06178C8.48012 7.17188 8.23862 7.33324 8.0352 7.53666C7.83178 7.74009 7.67041 7.98159 7.56032 8.24737C7.45023 8.51316 7.39356 8.79802 7.39356 9.08571V30.3791C7.39356 30.6668 7.45023 30.9517 7.56032 31.2175C7.67041 31.4832 7.83178 31.7247 8.0352 31.9282C8.23862 32.1316 8.48012 32.293 8.74591 32.403C9.01169 32.5131 9.29656 32.5698 9.58424 32.5698H16.6894C16.8812 32.5698 17.0711 32.6075 17.2483 32.6809C17.4255 32.7543 17.5866 32.8619 17.7222 32.9975C17.8578 33.1331 17.9654 33.2941 18.0388 33.4713C18.1123 33.6485 18.15 33.8384 18.15 34.0303C18.15 34.2221 18.1123 34.412 18.0388 34.5892C17.9654 34.7664 17.8578 34.9274 17.7222 35.063C17.5866 35.1987 17.4255 35.3062 17.2483 35.3796C17.0711 35.453 16.8812 35.4907 16.6894 35.4907V35.4834Z" fill="#5965F1"/>
<path d="M24.6763 11.3823H11.7549C11.3676 11.3823 10.9962 11.2284 10.7224 10.9545C10.4485 10.6806 10.2947 10.3092 10.2947 9.92188C10.2947 9.53458 10.4485 9.16315 10.7224 8.88927C10.9962 8.61539 11.3676 8.46149 11.7549 8.46143H24.6763C25.0635 8.46149 25.435 8.61539 25.7088 8.88927C25.9826 9.16315 26.1365 9.53458 26.1365 9.92188C26.1365 10.3092 25.9826 10.6806 25.7088 10.9545C25.435 11.2284 25.0635 11.3823 24.6763 11.3823ZM19.0918 16.0649H11.7549C11.3676 16.0648 10.9962 15.911 10.7224 15.6371C10.4485 15.3632 10.2947 14.9918 10.2947 14.6045C10.2947 14.2172 10.4485 13.8457 10.7224 13.5718C10.9962 13.298 11.3676 13.1441 11.7549 13.144H19.0918C19.2837 13.144 19.4736 13.1817 19.6508 13.2551C19.828 13.3285 19.9891 13.4361 20.1247 13.5717C20.2603 13.7073 20.3679 13.8683 20.4413 14.0455C20.5148 14.2227 20.5525 14.4126 20.5525 14.6045C20.5525 14.7963 20.5148 14.9862 20.4413 15.1634C20.3679 15.3406 20.2603 15.5016 20.1247 15.6372C19.9891 15.7729 19.828 15.8804 19.6508 15.9538C19.4736 16.0272 19.2837 16.0649 19.0918 16.0649ZM26.6406 36.7504C24.7302 36.7504 22.8627 36.1839 21.2743 35.1226C19.6858 34.0612 18.4478 32.5527 17.7167 30.7877C16.9857 29.0227 16.7944 27.0806 17.1671 25.2069C17.5398 23.3333 18.4597 21.6122 19.8106 20.2613C21.1614 18.9105 22.8825 17.9906 24.7562 17.6179C26.6298 17.2452 28.572 17.4364 30.3369 18.1675C32.1019 18.8986 33.6104 20.1366 34.6718 21.725C35.7331 23.3135 36.2996 25.181 36.2996 27.0913C36.2953 29.6517 35.2763 32.106 33.4658 33.9165C31.6553 35.727 29.201 36.7461 26.6406 36.7504ZM26.6406 20.3532C25.3079 20.3532 24.0051 20.7484 22.897 21.4888C21.789 22.2292 20.9253 23.2815 20.4153 24.5128C19.9053 25.744 19.7719 27.0988 20.0319 28.4059C20.2919 29.713 20.9336 30.9136 21.876 31.8559C22.8183 32.7983 24.0189 33.44 25.326 33.7C26.6331 33.96 27.9879 33.8266 29.2192 33.3166C30.4504 32.8066 31.5027 31.9429 32.2431 30.8349C32.9835 29.7268 33.3787 28.424 33.3787 27.0913C33.3744 25.3056 32.6631 23.5942 31.4004 22.3315C30.1377 21.0688 28.4263 20.3575 26.6406 20.3532Z" fill="#5965F1"/>
<path d="M25.9431 29.4245C25.5558 29.4245 25.1843 29.2706 24.9104 28.9968C24.6365 28.7229 24.4827 28.3514 24.4827 27.9641V23.8054C24.4826 23.6136 24.5204 23.4237 24.5938 23.2465C24.6671 23.0692 24.7747 22.9082 24.9103 22.7726C25.046 22.6369 25.207 22.5293 25.3842 22.4559C25.5614 22.3825 25.7513 22.3447 25.9431 22.3447C26.1349 22.3447 26.3249 22.3825 26.5021 22.4559C26.6793 22.5293 26.8403 22.6369 26.9759 22.7726C27.1115 22.9082 27.2191 23.0692 27.2925 23.2465C27.3659 23.4237 27.4036 23.6136 27.4036 23.8054V27.9641C27.4036 28.3514 27.2497 28.7229 26.9758 28.9968C26.7019 29.2706 26.3305 29.4245 25.9431 29.4245Z" fill="#5965F1"/>
<path d="M29.8827 29.6636H25.9431C25.5558 29.6635 25.1844 29.5096 24.9106 29.2357C24.6367 28.9619 24.4829 28.5904 24.4829 28.2031C24.4829 27.8158 24.6367 27.4444 24.9106 27.1705C25.1844 26.8966 25.5558 26.7427 25.9431 26.7427H29.8827C30.27 26.7427 30.6414 26.8966 30.9152 27.1705C31.1891 27.4444 31.3429 27.8158 31.3429 28.2031C31.3429 28.5904 31.1891 28.9619 30.9152 29.2357C30.6414 29.5096 30.27 29.6635 29.8827 29.6636Z" fill="#5965F1"/>
</svg>
