<svg xmlns="http://www.w3.org/2000/svg" width="108" height="108" viewBox="0 0 108 108">
  <g id="组_58713" data-name="组 58713" transform="translate(-569 -615)">
    <g id="椭圆_3639" data-name="椭圆 3639" transform="translate(569 615)" fill="none" stroke="#5a9bed" stroke-width="3">
      <circle cx="54" cy="54" r="54" stroke="none"/>
      <circle cx="54" cy="54" r="52.5" fill="none"/>
    </g>
    <g id="组_58671" data-name="组 58671" transform="translate(584.16 561.864)">
      <path id="路径_97204" data-name="路径 97204" d="M60.241,121.388a6.566,6.566,0,0,1-6.511-7.4,6.7,6.7,0,0,1,6.719-5.781h13.23V97.064a2.612,2.612,0,0,0-2.6-2.6H10.6a2.612,2.612,0,0,0-2.6,2.6v34.011a2.612,2.612,0,0,0,2.6,2.6H71.023a2.612,2.612,0,0,0,2.6-2.6v-9.688ZM56.179,92.064,53,82.272a2.453,2.453,0,0,0-3.073-1.563l-36.2,11.719Z" fill="#419df4"/>
      <path id="路径_97205" data-name="路径 97205" d="M752.792,537.592m-4.792,0a4.792,4.792,0,1,0,4.792-4.792A4.792,4.792,0,0,0,748,537.592Z" transform="translate(-691.821 -422.766)" fill="#419df4"/>
    </g>
  </g>
</svg>
