<svg xmlns="http://www.w3.org/2000/svg" width="49" height="49" viewBox="0 0 49 49">
  <g id="组_58473" data-name="组 58473" transform="translate(-14 -3354)">
    <g id="组_58469" data-name="组 58469" transform="translate(14 3354)">
      <g id="组_58390" data-name="组 58390">
        <g id="椭圆_3624" data-name="椭圆 3624" fill="none" stroke="#4372c3" stroke-width="1">
          <circle cx="24.5" cy="24.5" r="24.5" stroke="none"/>
          <circle cx="24.5" cy="24.5" r="24" fill="none"/>
        </g>
      </g>
    </g>
    <path id="路径_97088" data-name="路径 97088" d="M166.373,64.1H147.395a1.9,1.9,0,0,0-1.895,1.858h.13c-.044,0-.084,0-.13.006V90.03a1.9,1.9,0,0,0,1.9,1.9h18.975a1.9,1.9,0,0,0,1.895-1.9V65.961A1.9,1.9,0,0,0,166.373,64.1Zm-8.928,20.562a1,1,0,0,1-.994.994h-4.536a.994.994,0,0,1,0-1.988h4.536A1,1,0,0,1,157.445,84.662Zm2.8-6.648a1,1,0,0,1-.994.994h-7.331a.994.994,0,1,1,0-1.988h7.331A1,1,0,0,1,160.241,78.014Zm2.609-6.648a1,1,0,0,1-.994.994h-9.941a.994.994,0,0,1,0-1.988h9.941A1,1,0,0,1,162.85,71.366Z" transform="translate(-118.384 3300.486)" fill="#4372c3"/>
  </g>
</svg>
