<svg id="组_58472" data-name="组 58472" xmlns="http://www.w3.org/2000/svg" width="49" height="49" viewBox="0 0 49 49">
  <g id="组_58390" data-name="组 58390">
    <g id="椭圆_3624" data-name="椭圆 3624" fill="none" stroke="#29c2c3" stroke-width="1">
      <circle cx="24.5" cy="24.5" r="24.5" stroke="none"/>
      <circle cx="24.5" cy="24.5" r="24" fill="none"/>
    </g>
  </g>
  <path id="路径_97067" data-name="路径 97067" d="M91.861,109.247a1.191,1.191,0,0,0-1.191-1.191H64.47a1.191,1.191,0,0,0-1.191,1.191v17.745a1.191,1.191,0,0,0,1.191,1.191h26.2a1.191,1.191,0,0,0,1.191-1.191v-4.525H84.3a4.347,4.347,0,1,1,0-8.694h7.562Zm-10.123,8.872a2.56,2.56,0,1,0,2.56-2.56A2.56,2.56,0,0,0,81.738,118.119ZM89,106.948l-1.478-5.175a.985.985,0,0,0-1.216-.675l-20.645,5.85Z" transform="translate(-53.113 -92.061)" fill="#29c2c3"/>
</svg>
